<?xml version="1.0" encoding="utf-8"?>
<!-- Generator: Adobe Illustrator 28.0.0, SVG Export Plug-In . SVG Version: 6.00 Build 0)  -->
<svg version="1.1" id="Layer_1" xmlns="http://www.w3.org/2000/svg" xmlns:xlink="http://www.w3.org/1999/xlink" x="0px" y="0px"
	 viewBox="0 0 1000 1000" style="enable-background:new 0 0 1000 1000;" xml:space="preserve">
<style type="text/css">
	.st0{fill:#FFFFFF;}
	.st1{fill:#FFFFFF;stroke:#000000;stroke-miterlimit:10;}
	.st2{fill:#FFFFFF;stroke:#000000;stroke-linecap:round;stroke-linejoin:round;stroke-miterlimit:10;}
	.st3{fill:none;stroke:#000000;stroke-miterlimit:10;}
	.st4{fill:#FFFFFF;stroke:#000000;stroke-width:2;stroke-miterlimit:10;}
	.st5{fill:none;stroke:#000000;stroke-width:2;stroke-miterlimit:10;}
	.st6{stroke:#000000;stroke-width:2;stroke-miterlimit:10;}
</style>
<g>
	<path d="M439.4,330.5c0.4,0,0.8-1,1-2.4c0,0,0,0,0-0.1c0,0,0,0,0,0c0.2-1.4,0-2.5-0.4-2.6c-1.1-0.2-2.3-0.5-3.4-0.7
		c-5-1-10-2.1-15-3.2c-4.6-1-9.2-2.1-13.9-3.1c-7-1.6-14-3.4-21-5.1c-3.8-0.9-7.6-1.9-11.4-2.8c-10.7-2.8-21.5-5.6-32-8.8
		c-2.4-0.7-4.9-1.5-7.3-2.3c-8.1-2.6-16-5.4-23.6-8.9c-0.4-0.2-1.2,0.7-1.8,1.9c0,0,0,0,0,0c0,0,0,0,0,0c-0.7,1.2-1,2.4-0.6,2.6
		c9.8,5.9,20.3,10.4,30.9,14.2c9.8,3.5,19.8,6.6,30,9.4c3.9,1,7.8,2,11.7,3c4.6,1.1,9.1,2.1,13.7,3c8.8,1.8,17.6,3.3,26.5,4.5
		C428.1,329.6,433.7,330.1,439.4,330.5z"/>
	<path d="M689.1,839.9c0-0.4-0.1-0.8-0.1-1.2c-0.2-3.4-0.6-6.8-1.2-10l-1-5.4l-0.6-2.6l-0.7-2.9l0.1,0.3l-3.1-14
		c-0.7-3.3-1.4-6.5-2.1-9.7c-0.1-0.6-0.3-1.3-0.4-1.9c-1.6-8.1-3-16.2-4-24.3c-2-16.7-2-33.5-0.5-50.3c1.3-16.9,4.6-33.4,5.5-51.1
		c0.2-4.4,0.1-9-1-13.8c-0.6-2.4-1.5-4.9-3-7.2c-1.5-2.3-4-4.3-6.1-5.5c-4-2.3-8.1-4-12.3-5.5c-4.3-1.3-8.4-2.4-12.8-3.7l0.4,0.1
		c-15.9-4.7-32-4.7-47.7-3.8c-3.5,0.3-6.9,0.6-10.4,1c1-4.2,1.6-8.5,2-12.8c1-0.2,2-0.3,3-0.5c7.3-1.5,14.4-3.7,21.1-7.4
		c6.7-3.6,12.8-8.7,17.2-14.9c4.6-6.1,7.9-12.9,10.3-20c2.3-7.1,3.6-14.5,4.2-21.9c1-14.8-0.8-29.8-6.3-43.8
		c-5.5-14-14.7-26-24.4-36.6c-4.8-5.3-9.8-10.4-14.4-15.6c-4.5-5.2-8.8-10.5-11.1-16.2c-2.3-5.7-2.1-11.6,0.4-17.2
		c0.6-1.4,1.4-2.8,2.2-4.1l0.7-1l1.4-1.8c0.8-1.2,2.2-2.7,3.4-4.1c2.7-2.9,3.8-5.3,3.8-6.7c0-0.7-0.1-1.2-0.4-1.7l-0.6-1.1
		c0.1-0.8-0.6-0.9-0.8-1.3c-1-0.5-1.7-1-2.9-1.2c-0.6-0.1-1.2-0.1-1.9-0.1c-0.7,0-1.5,0.2-2.3,0.4c-3.3,0.7-7.6,2.6-11,4.3
		c-4.1,2.1-8,4.6-11.7,7.3c-7.4,5.4-14.1,11.8-19.5,19.4c-2.7,3.8-5.1,7.9-6.9,12.2c-1.8,4.3-3.2,9.1-3.3,14.2c0,5.2,1.4,9.7,2,13.6
		c0.6,4,0.7,7.9,0.1,12c-1.2,8.2-3.8,16.1-8.3,23.1c-4.4,7.1-10.3,13.8-14.7,21.8c-4.6,7.9-7.3,16.8-8.9,25.6
		c-1.5,8.8-1.9,18.3,1.5,27.2c0.6,1.7,2.3,2.4,3.5,1.8c0,0,0,0,0,0c1.3-0.6,1.8-2.2,1.3-3.6c-3.5-10-1.7-21.6,1.3-32.1
		c1.6-5.3,3.7-10.3,6.5-15.1c2.7-4.8,6.1-9.2,9.6-13.7c3.5-4.6,7-9.5,9.7-15c2.7-5.5,4.4-11.4,5.5-17.3c1.1-5.9,1.2-12.5-0.1-18.5
		c-1.3-6-1.9-10.2-0.4-15.2c2.9-10.5,10-19.9,18.5-27.5c4.3-3.8,9-7.2,13.9-10.2c1.2-0.7,2.5-1.4,3.8-2.1c0.9-0.5,0.6-0.3,0.7-0.4
		l0.1,0c0.1,0,0.2-0.1,0.3,0c0.1,0.1-0.1,0.2-0.1,0.2l-0.1,0.1l-0.1,0.2l-0.3,0.4c-0.4,0.7-0.9,1.3-1.3,2
		c-3.4,5.3-5.5,11.9-5.2,18.6c0.3,6.8,3.1,12.9,6.5,18c3.3,5.1,7.2,9.5,11.1,13.8c7.8,8.5,15.7,16.4,22.3,25.2
		c6.6,8.7,12,18.2,14.8,28.6c3.1,10.3,4.1,21.4,3.5,32.2c-0.5,10.8-3.3,21.5-8,30.9c-4.8,9.4-12.5,17.1-21.8,21.7
		c-5.4,2.5-11.2,4.3-17.1,5.5c0-4.2-0.2-8.4-0.7-12.5c-1-7.7-3.3-15-5.3-22c-1-3.5-1.8-6.9-2.4-10.4l-0.5-2.6l-0.3-2.2l-0.3-2.8
		c-0.5-3.7-0.5-7.9-0.6-12.5l-6.1,2.1c-0.2,0.1-0.5,0.2-0.7,0.3c-0.3,0.1-0.6,0.2-1,0.4c-0.1,0-0.1,0.1-0.2,0.1
		c-0.6,0.4-1.2,0.8-1.8,1.4c-0.2,0.2-0.4,0.4-0.7,0.6c-0.4,0.4-0.8,0.9-1.3,1.4c-0.2,0.2-0.4,0.4-0.6,0.6c-1,1.3-1.8,2.9-2.6,4.6
		l-1,2.8c-0.3,0.9-0.6,2.2-0.7,2.6c-0.5,2.3-0.8,4.6-0.9,6.8c-0.2,4.6,0.3,8.9,0.9,13c0.6,4.1,1.2,8.2,1.9,12.2
		c0.1,0.5,0.2,1,0.3,1.5c0.6,4.1,1.4,8.3,1.7,12c0,0.5,0,0.7,0,1.2l-0.1,1.5l0,1c-8-0.8-15.9-2.8-23.2-6.2c-5.2-2.4-10-4.8-14.3-8.2
		c-4.3-3.3-8-7.4-10.8-12c-0.7-1.3-2.3-1.9-3.6-1.3c0,0,0,0-0.1,0c-1.2,0.6-1.6,2.3-0.8,3.9c3.7,6.6,9,12.1,15.1,16.4
		c3,2.1,6.4,4,9.5,5.6c3.2,1.7,6.6,3.3,10,4.5c5.7,2.1,11.6,3.4,17.6,4.2c0,0.4-0.1,0.9-0.1,1.3c-0.4,4.1-1.1,8.1-1.8,12.1
		c-0.2,0.8-0.4,1.7-0.6,2.5c-4.1,0.8-8.2,1.6-12.3,2.5c-12.2,2.8-24.2,6-36.1,9.6c-3.7,1.1-7.5,2.3-11.2,3.5
		c-0.1-67.1-0.2-134.2-0.4-201.1c0.1,0,0.1,0,0.2,0c4.6,0.3,7.7-1.8,10.1-3.8c2.4-2.1,4.4-4.5,5.8-7.1c3-5.2,4.4-11,4.8-16.7
		c0.4-6-1-11.5-2.2-16.6c-1.4-5.2-3-10.2-4.8-15.2c-1.8-4.9-3.8-9.9-5.9-14.7c-1.8-4.3-2.9-8.8-2.9-13.5c-0.1-4.7,0.7-9.7,1.1-15.1
		c0.2-2.7,0.3-5.5,0.3-8.2c-0.1-1.4-0.1-2.8-0.3-4.2l-0.4-3.9c-0.4-5.2-1.8-11.8-5.6-16.8c-3.6-5.1-8.6-8.4-13.6-11.1l-0.9-0.5h-0.2
		c-3.1-1.5-6.2-2.9-9.3-4c-3.5-1.2-7.4-2.3-11.3-2.8h0l-5-1.1l-5.4-1c-3.6-0.7-7.2-1.2-10.8-1.8c-7.2-1.1-14.4-2.1-21.6-3
		c-6.5-0.9-12.9-1.7-19.4-2.6c0-0.1-0.1-0.3-0.1-0.5c-0.5-2.1-0.9-4.1-1.3-6.2c-0.8-4.2-1.5-8.4-1.9-12.6c-0.1-0.7-0.1-1.4-0.2-2.1
		c9.5-1.3,18.8-4.4,27-9.3c1.5-0.9,2.1-2.6,1.4-3.7c0,0,0,0,0,0c-0.8-1.2-2.5-1.5-3.9-0.7c-7.7,4.3-16.2,7-24.9,8l-0.1-1.5l-0.1-1.6
		c0-0.5,0-0.7,0-1.2c0.3-3.5,0.9-7.4,1.6-11.3c0.1-0.9,0.3-1.8,0.4-2.7c0.7-4.2,1.4-8.4,1.9-12.7c0.3-2.1,0.5-4.3,0.7-6.5
		c0.2-2.3,0.3-4.6,0.2-6.9c-0.1-2.3-0.4-4.7-0.8-7l-0.4-1.8c0-0.2-0.2-0.8-0.4-1.3l-0.5-1.5c-0.1-0.5-0.4-0.9-0.6-1.3
		c-0.2-0.4-0.3-0.8-0.5-1.1c-0.1-0.1-0.1-0.2-0.1-0.3c-0.3-0.7-0.6-1.3-1-1.9c0,0,0-0.1-0.1-0.1c0-0.1-0.1-0.1-0.1-0.2
		c-0.1-0.1-0.1-0.2-0.2-0.3c-0.1-0.2-0.2-0.3-0.3-0.5c-0.4-0.6-0.8-1.1-1.2-1.6c0,0,0,0,0,0c-1.5-1.8-3.2-3-4.9-3.7l-3.8-1.3
		l-2.7-0.9c0.1,9.3-1.3,18.2-1.7,20.3c-0.7,3.7-1.5,7.3-2.5,10.9c-2,7.3-4.4,15-5.5,22.9c-0.6,4.6-0.8,9.2-0.8,13.8
		c-5.9-1.3-11.6-3.4-16.9-6.2c-10-5.2-18.5-13.1-24.5-22.6c-6.2-9.4-9.6-20.4-10.9-31.6c-1.6-14,0.1-28.4,3.9-42.2
		c3.9-13.8,9.4-27.5,16-40.3c13.4-25.7,32.4-48.7,55.9-65.7c2.9-2.1,6-4.2,8.9-6c0,0,0.1,0,0.1,0c0,0,0-0.1,0,0l-0.1,0.7
		c-0.1,0.5-0.2,1-0.3,1.5l-0.4,2.9c-0.2,2-0.4,3.9-0.5,5.9c-0.2,3.9-0.1,7.8,0.2,11.7c0.6,7.8,2.2,15.4,4.3,22.7
		c2.1,7.4,4.8,14.5,8,21.4c3.1,7,6.8,13.6,10.6,20.1l11.8,18.7c7.1,12.4,12.3,26,13.8,40.1c1.1,11.3-0.4,22.7-4.9,33.1
		c-4.5,10.4-12.4,19.1-21.7,25.7c-1.3,0.9-1.8,2.6-1.1,3.8c0,0,0,0,0.1,0.1c0.8,1.2,2.5,1.3,3.9,0.3c10.1-6.8,19-16,24.3-27.3
		c5.4-11.2,7.4-23.9,6.4-36.2c-0.9-12.4-4.7-24.3-9.9-35.3l-4.2-8.2L448,134c-3.1-5.1-6.3-9.9-9.1-15
		c-11.3-20.2-19.6-42.7-19.2-65.4c0.1-2.8,0.3-5.6,0.7-8.4l0.3-2.1l0.5-2.7c0.6-2.9-0.3-5.7-2.2-7.7c-1.9-2-4.7-2.9-7.4-2.4
		c-1.4,0.2-2.7,0.9-3.9,1.7l-2.1,1.3c-2.6,1.6-5.1,3.3-7.6,5.1c-9.9,7.1-19,15.3-27.3,24.2c-16.6,17.8-29.5,38.8-38.9,61.2
		c-4.5,11.2-8.4,22.8-10.8,34.8c-2.3,12-3.1,24.4-1.6,36.7c1.6,12.2,5.6,24.4,12.7,34.7c6.9,10.4,16.5,18.9,27.7,24.4
		c6.4,3.2,13.2,5.4,20.1,6.6c0.4,6.2,1.5,12.3,3.1,18.2c-14-2.3-27.9-5-41.6-8.5c-7-1.8-14.5-3.5-22-4.2c-3.8-0.4-7.6-0.5-11.6-0.2
		c-3.6,0.3-7.1,0.8-11,2.6h-0.2l-1,0.5c-4.2,2.2-6.9,6-8.5,9.5c-1.6,3.6-2.5,7.2-3.1,10.8c-1,7.1-1.1,14.1-0.8,21
		c0.6,13.8,2.9,26.9,2.7,39.9c-0.1,6.4-0.6,12.8-2.3,18.8c-0.8,3-1.8,5.9-3.1,8.7c-1.3,2.8-2.9,5.4-4.7,8.4c-1.8,3-3.6,6.4-4.5,10.4
		c-0.8,4-0.6,8,0.4,11.8c1,3.8,2.9,7.3,5.4,10.3c1.3,1.5,2.7,2.9,4.3,4l1.1,0.8l0.2,0.1c0.2,0.1,0.2,0.1,0.3,0.1
		c0,0.1-0.1,0.2-0.1,0.3l-1,2.4c-0.9,2.1-1.8,4.3-2.5,6.5c-1.6,4.4-2.9,8.9-3.8,13.6c-0.8,4.7-1.2,9.6-0.8,14.5
		c0.4,4.9,1.7,9.8,3.8,14.2c2.1,4.5,5,8.6,8.9,12c0.9,0.8,1.9,1.6,2.9,2.3l-0.8,231.8c-0.1,40.4-0.2,80.9-0.2,121.5l0,30.5l0,15.2
		c0,1.3,0,2.4,0,4c0,1.6,0.3,3.2,0.7,4.8c0.9,3.1,2.4,5.8,4.2,8.2c3.6,4.7,8.1,8.1,12.8,10.9c4.6,2.8,9.5,5,14.4,7
		c9.8,3.8,20,6.4,30.2,8.2c20.5,3.7,41.3,4.6,61.9,3.4c18.9-1.2,37.9-4,56.1-10.5l0,5.9c0,3.3,1,6.5,2.5,9.3
		c3,5.4,7.5,9.3,12.1,12.4c7.9,5.2,16.4,8.6,25,11.3c8.6,2.7,17.5,4.6,26.3,5.9c17.8,2.7,35.8,3.4,53.7,2.4
		c17.9-1.1,35.9-3.8,53.3-9.8c8.6-3.1,17.2-6.9,24.8-13.3c3.7-3.3,7.2-7.4,8.9-12.9c0.4-1.4,0.7-2.8,0.7-4.3l0.1-1.1l0-0.8l0-1.7
		l0-5.8l0.4-1c0.3-0.7,0.6-1.3,0.8-2c0.5-1.4,0.8-2.7,1.2-4.1l-0.3,0.9c0.1-0.3,0.2-0.7,0.4-1l0.1-0.3l0.1-0.3
		c2.2-10.3,2.4-20.9,1.7-31.1c-0.1-2.6-0.3-5.2-0.6-7.7c-0.3-2.5-0.6-5.2-1.1-7.7l-1.3-7.6c-0.2-0.8-0.3-1.6-0.5-2.4
		c0.5-0.1,1-0.3,1.5-0.4c2.3-0.8,4.8-2.5,6.4-4.7C689.1,848.3,689.2,843.7,689.1,839.9z M660.3,943.4c-6.9,5.3-15.6,9-24.4,11.8
		c-17.8,5.6-36.8,8-55.6,8.6c-18.9,0.5-37.9-0.8-56.3-4.8c-9.2-2-18.2-4.7-26.5-8.5c-4.1-1.9-8.1-4.2-11.6-6.9
		c-3.4-2.7-6.3-5.9-7.5-9.4c-0.6-1.8-0.7-3.1-0.7-5.8l0-6.5v-0.7l0-4.2l0-5l0-5.1l0-28.8c0.1-19.2,0.1-38.3,0.2-57.5
		c0-38.1,0-76.1,0.1-114.1c1.4,0.5,2.7,1,4,1.7c3.3,1.7,6.1,4,8.2,6.8c2.1,2.8,3.6,6.2,4.2,9.7c0.6,3.1,0.9,7,2,10.9
		c0.2,0.6,0.3,1.1,0.5,1.7c0.8,3,2.2,5.8,4,8.5c1.3,1.9,2.7,3.7,4.4,5.3c3,2.9,6.6,5.2,10.6,6.5c4.6,1.6,9.8,1.9,14.8,0.6
		c4.7-1.2,9.2-4.1,12.4-6.9l1.1-0.9c0.3-0.3,0.8-0.6,0.7-0.5l0,0l0,0c0,0.1-0.1-0.1,0,0c0.1,0.1,0.2,0.6,0.3,0.9
		c1,2.9,1.2,7.1,1.3,11c0.2,8-0.2,16.3-0.3,24.7c-0.1,8.3-0.2,16.8,0.4,25.2c0.6,8.5,1.7,17.1,4.8,25.6c1.6,4.2,3.7,8.4,6.9,12.1
		c1.5,1.8,3.5,3.5,5.5,4.9c2,1.3,4.2,2.4,6.5,3.2c2.3,0.8,4.7,1.3,7.4,1.3c2.6,0,5.7-0.6,8.3-2.5c2.6-1.9,4.1-4.7,4.9-7.2
		c0.7-2.5,1-5,1-7.2c-0.1-9.1-1.9-17.1-3.1-25.3c-1.3-8.1-2.4-16.1-2.4-24.1c0-7.9,1.2-15.8,4.5-22.7c3.3-6.9,8.8-12.7,15.6-16.6
		c0.9-0.6,1.2-2,0.6-3.2c0,0,0,0,0,0c0,0,0,0,0,0c-0.4-0.9-1.2-1.4-2-1.4c-0.4,0-0.8,0-1.1,0.2c-7.7,4.1-14.4,10.5-18.5,18.5
		c-4.1,7.9-5.7,16.8-5.9,25.4c-0.3,8.6,0.7,17.1,1.8,25.3c1.1,8.2,2.6,16.5,2.5,24c-0.1,2.3-0.4,4.5-1.1,5.9c-0.7,1.5-1.6,2.1-3,2.5
		c-3,0.7-7.8-0.7-11.2-3.1c-6.9-4.7-10.1-14.5-11.6-24.1c-1.6-9.8-1.8-20-1.7-30.2c0.1-10.3,0.6-20.6,0.4-31.3
		c-0.1-2.7-0.2-5.4-0.6-8.2c-0.2-1.4-0.5-2.9-0.9-4.4l-0.8-2.4c-0.4-0.7-1.1-2.3-2-3l-1.4-1.3c-0.5-0.4-1.1-0.6-1.6-0.9
		c-1.1-0.7-2.4-0.7-3.6-0.7c-1.2,0.2-2.5,0.5-3.6,1.1c-0.5,0.3-1.2,0.6-1.6,1l-0.9,0.7c-2.2,1.9-3.8,3.3-5.6,4.3
		c-3.7,2.2-7.8,3.1-11.9,2.3c-4.1-0.8-8.1-3-11-6.1c-2.1-2.2-3.6-4.8-4.7-7.7c-0.5-1.3-0.9-2.6-1.3-4c-0.6-2.2-0.9-4.7-1.3-7.4
		c-0.4-2.1-1-4.2-1.8-6.3c-0.3-0.7-0.5-1.4-0.8-2.1c-0.9-2.1-2.2-4-3.6-5.8c-2.2-2.9-5-5.4-8-7.2c-2.5-1.5-5.1-2.7-7.7-3.6
		c-1.3-0.5-2.7-0.9-4-1.2l-0.9-0.2c-0.1,0-0.1,0-0.2,0c0.1,0-0.5-0.3-0.9-0.7c-5.5-4.3-8.7-11.8-7.5-18.9c0.5-3.5,2-6.9,4.2-9.8
		c2.3-2.9,5.3-5.1,8.8-6.3c0.1,0,0.2-0.1,0.2-0.1c0.1-0.1,0.3-0.1,0.4-0.2c0.6-0.5,0.9-1.5,0.7-2.6c0,0,0,0,0-0.1c0,0,0,0,0,0
		c0,0,0,0,0,0l0.4,0.3l3.2,2.3c2.2-1.7,4.5-2.5,7.7-3.5l3.8-1.2l4.4-1.4l1.7-0.6c0.8-0.3,1.7-0.5,2.5-0.8c5.8-1.8,11.5-3.6,17.4-5.2
		c13.3-3.7,26.8-7,40.3-9.5c0,0,0,0,0,0l-1,3.4l-0.1,1.9c-0.1,0.6-0.1,1.2,0.1,1.7c0.3,1.1,1.5,2,2.5,2.3c2.2,0.8,5.4,0.3,7.9-0.3
		c1.8-0.5,3.6-1.1,5.4-1.8c1.8-0.8,3.4-1.5,5.3-3.4c0.8-0.8,0.2-2.5-1.2-2.7c0,0,0,0,0,0c0,0,0,0,0,0c0,0,0,0,0,0
		c1.3,0.6,2.5,0.5,2.8-0.1c0.6-1.5,1.1-2.9,1.6-4.4c5.9-0.7,11.8-1.2,17.7-1.4c6.9-0.4,13.7-0.1,20.5,0.3c6.7,0.7,13.4,1.8,19.7,3.7
		l0.4,0.1l0.1,0l0-4.1c0,0,0,0,0,0c-0.1,1.4,0.5,2.7,1.7,3c4,1,7.9,2.3,11.7,3.9c1.9,0.8,3.8,1.6,5.6,2.5c1.8,0.9,3.7,1.9,5.2,2.9
		c2.7,1.8,4.1,4.9,4.7,8.7c0.6,3.7,0.5,7.9,0.2,11.9c-1.3,16.5-4.7,33.3-6.3,50.3c-1.7,17-1.8,34.5,0.2,51.6
		c0.5,4.3,1.1,8.6,1.8,12.8c0,0,0,0.1,0,0.1c0.6,4,1.4,8,2.2,11.9c0,0.2,0.1,0.5,0.1,0.7c0.1,0.3,0.1,0.6,0.2,0.8
		c1.5,8.1,3.4,16.2,5.2,24.1l0.1,0.3l1,4.8l0,0l1,5.1c0.6,3.4,1.1,6.7,1.2,9.9c0.2,3.1-0.3,6.1-1.3,7.5c-0.5,0.7-1.1,1.1-2.1,1.5
		l-0.4,0.1c-0.1,0-0.2,0.1-0.7,0.2c-0.2,0-0.4,0-0.6,0c0,0-0.1,0-0.1,0c-0.7,0-1.4,0-2.1,0l-4.4,0l-1.1,0l1.2,5.5l0.4,1.9l0.4,1.8
		l0.3,1.5l0.3,1.8l1.3,7.3c0.5,2.4,0.8,4.8,1,7.2c0.3,2.4,0.5,4.9,0.6,7.3c0.7,9.8,0.6,19.6-1.4,29l0.1-0.5c0,0,0.1-0.1,0.1-0.1
		l-0.3,0.8c-0.3,1.2-0.6,2.4-1,3.5l-1.2,3.1l-0.1,0.3c-0.2,0.5-0.5,0.9-0.7,1.4c-0.4,0.8-0.9,1.5-1.4,2.1c-0.4,0.5-0.9,0.9-1.3,1.3
		c-0.5,0.4-1.1,0.8-1.6,1c-1.1,0.5-2.3,0.9-3.7,1c-0.7,0.1-1.4,0-2.1,0c-0.6,0-1.6-0.2-1.7-0.3c0-0.1-0.1-0.1-0.2-0.1
		c-0.1-0.2-0.2-0.3-0.4-0.4c-0.3-0.6-0.7-1.1-1-2c-0.6-1.6-1-3.6-1.3-5.6c-0.6-4-0.7-8.3-0.8-12.5c-0.1-8.4,0.6-17.2,0.2-26.1
		c-0.6-17.6-3.3-34.7-4.2-51.8c-0.1-1.3-1.2-2.3-2.6-2.3c0,0,0,0,0,0c-1.4,0-2.5,1.1-2.5,2.5c0.4,17.5,2.6,34.8,2.6,51.8
		c0.1,8.5-0.8,17-0.9,25.9c0,4.4,0,8.9,0.6,13.5c0.3,2.3,0.7,4.6,1.5,7.1c0.4,1.2,1,2.6,1.8,3.9c0.5,0.7,1.2,1.4,1.8,2
		c0.9,0.5,1.8,1,2.6,1.5c1.7,0.5,2.6,0.6,4,0.7c1.2,0.1,2.5,0.1,3.7,0c2.1-0.2,4.4-0.9,6.4-2c-0.1,0.6-0.2,1.1-0.5,1.7
		C666.5,937.5,663.7,940.7,660.3,943.4z M319.2,913.2c-6.1-2.9-12.1-6.3-16.3-10.8c-2.1-2.2-3.7-4.7-4.3-7.3
		c-0.1-0.6-0.3-1.3-0.3-1.9l-0.1-1l0-1.3l0-5.4l-0.1-42.8c-0.1-57.1-0.3-114.1-0.4-171.2c-0.2-59.5-0.4-119-0.7-178.4
		c1.5,0.5,3,1,4.5,1.2c2.6,0.4,5.6,0.4,8.4-0.6c3-1.1,5-2.8,6.9-4.8c3.7-4.1,5.4-9.2,6.2-14c0.5-3.3,0.5-6.5,0.4-9.4c0-3,0-6-0.1-9
		c-0.2-6-0.5-12-0.9-17.9c-0.8-11.9-2.1-23.7-3.3-35.5c-2.5-23.6-5.1-47.1-4.7-70.6c0-1.6-0.2-3.1-0.6-4.3c-0.4-1.1-1-1.8-1.7-1.9
		c0,0,0,0-0.1,0c0,0,0,0,0,0c-1.4,0-2.6,2.6-2.7,6c-1.3,42,6.6,83.3,7.2,124.5c0.1,2.6,0.1,5.2,0,7.7c0,2.6,0.1,5.2-0.2,7.5
		c-0.5,4.7-2,9.2-4.9,12.2c-1.4,1.4-3.2,2.6-4.8,2.9c-1.8,0.4-3.9,0.2-6-0.5c-1.3-0.4-2.5-0.9-3.7-1.6c-1.1-0.6-2.1-1.3-3.1-2
		c-1.1-0.9-2.2-1.9-3.1-2.9c-0.3-0.3-0.6-0.6-0.9-1c-2.9-3.6-5-7.9-6.2-12.5c-1.1-4.5-1.3-9.3-0.8-14.2c0.5-4.8,1.8-9.6,3.4-14.4
		c0.8-2.4,1.7-4.7,2.7-7.1l1.7-3.8l0.2-0.4l2.9-6.3c-0.9-0.4-1.9-0.9-2.8-1.3c-0.5-0.2-1-0.5-1.5-0.7l-2.1-1.1
		c-0.5-0.3-0.6-0.4-0.9-0.6c-1.1-0.8-2-1.8-2.9-2.8c-1.7-2.1-3-4.6-3.7-7.3c-0.7-2.7-0.8-5.4-0.2-8c0.5-2.5,1.9-5.1,3.6-7.9
		c1.7-2.7,3.6-5.7,5.2-9c1.1-2.3,2-4.7,2.8-7.1c0.3-1,0.7-2,0.9-3c0.9-3.1,1.4-6.3,1.8-9.5c0.5-3.8,0.7-7.6,0.8-11.4
		c0.1-6-0.3-11.9-0.8-17.7c-0.3-3.7-0.7-7.3-1-10.9c-0.3-3.9-0.7-7.9-0.8-11.7c-0.3-6.5-0.2-13,0.8-19.2c0.9-5.7,3-11.5,6.5-13.6
		l0.7-0.4c2-1.1,5.3-1.8,8.5-2c3.3-0.2,6.7-0.1,10.1,0.2c6.9,0.7,13.7,2.2,20.6,4c14.2,3.7,28.6,6.5,42.9,8.8c1.7,0.3,3.4,0.5,5,0.8
		c-0.3,0.6-0.2,1.2,0.2,1.7c2,2,3.7,2.6,5.5,3.5c1.8,0.8,3.7,1.4,5.6,1.9c0.4,0.1,1.1,0.3,1.9,0.4c0.7,0.1,1.5,0.2,2.2,0.3
		c1.5,0.1,2.9,0,4.1-0.4c1.1-0.3,2.4-1.3,2.6-2.4c0.2-0.4,0.1-1,0.1-1.6c5.3,0.7,10.7,1.5,16,2.2c7.2,1,14.4,1.9,21.5,3
		c3.6,0.5,7.1,1.1,10.6,1.7l5.3,1l5.6,1.2h0c6.2,0.7,12.9,3.4,18.7,6.3l0.5,0.3c4.7,2.6,8.8,5.8,11.2,9.9c0.6,1,1.1,2.1,1.5,3.2
		c0.1,0.1,0.1,0.3,0.1,0.4c0.2,0.6,0.4,1.1,0.5,1.7c0.5,2.4,0.7,5,1.1,8c0.4,3.4,0.5,6.9,0.3,10.5c-0.4,7-2,14.9-0.8,23.4
		c0.5,3.8,1.7,7.5,3.1,10.9c0.1,0.3,0.3,0.7,0.4,1c1.5,3.3,2.9,6.7,4.2,10.2c2.6,6.9,5,13.9,6.6,20.9c0.8,3.5,1.4,6.9,1.2,10.1
		c-0.1,3.3-0.7,6.6-1.9,9.6c-1.1,3-2.8,5.8-4.9,7.9c-2,2.2-4.9,2.9-5,2.4c-0.1-0.1-0.3-0.3-0.5-0.7c-0.2-0.3-0.4-0.8-0.6-1.5
		c-0.5-1.5-0.8-3.1-1.1-4.8c-0.5-3.4-0.8-7.1-1-10.8c-0.4-6.8-0.4-13.8-1.2-21c-0.1-0.6-0.1-1.2-0.2-1.8c-0.6-4-1.4-8.1-3.3-12
		c0-0.1-0.1-0.1-0.1-0.2c-0.9-1.9-2.1-3.8-3.7-5.5c-0.8-0.9-1.8-1.7-2.7-2.3l-1.1-0.8c0,0,0,0-0.1,0.1l-0.9,1.1
		c-0.7,0.9,2.2-2.7,1-1.2l-0.3-0.3l-0.7-0.5c-1.8-1.4-4-2.6-6.8-3c-2.7-0.5-6,0.2-8.3,1.9c-2.3,1.6-3.8,3.8-4.8,5.8
		c-1.1,2.1-1.7,4.1-2.2,6.2c-0.9,4.1-1.2,8.2-1.1,12.1c0,2,0,3.9,0.2,5.9c0.1,2,0.3,3.9,0.6,5.8c2,15.4,6.5,29.9,9.8,44.3
		c1.6,7.1,3.1,14.6,1.7,20.5c-0.8,3.1-2.3,5.6-4.5,6.9c-1.1,0.6-2.4,1-3.8,1.1l-1.2,0c-1-0.1-1.7-0.3-2.6-0.4l-5.1-1.1
		c-0.1,0.3-0.2,0.4-0.2,0.8l-0.1,1.1l-0.2,2.2c-0.1,1.4-0.1,3,0.1,4.6l0.2,2.2l0.2,1.4l0.4,2.7l1.7,10.7c1,7.1,1.8,14.1,1.7,21
		c-0.1,6.8-1.1,13.9-4.8,18.6c-0.9,1.2-2,2.1-3.2,3c-1,0.6-2.4,1.1-3.8,1.3c-2.8,0.4-5.5-0.4-7.6-2.2c-2.2-1.8-3.8-4.7-4.9-7.6
		c-0.9-2.9-1.3-6.3-1.4-9.8c-0.3-6.9,0.1-14.1,0.6-21.2c0.9-14.3,2.2-28.6,2.7-43c0.1-3.4-0.9-6.1-2.3-6.2c0,0,0,0,0,0
		c-1.4-0.1-2.7,2.6-2.8,6c-0.7,14.3-2.1,28.6-3.3,43c-0.5,7.2-1,14.4-0.8,21.9c0.1,3.7,0.4,7.5,1.7,11.5c1.4,3.8,3.3,7.4,6.7,10.3
		c3.3,2.9,8.2,4.3,12.5,3.6c2.2-0.3,4.3-1,6.3-2.3c1.8-1.2,3.4-2.7,4.7-4.4c2.7-3.4,4-7.3,4.9-11.1c0.9-3.8,1.2-7.6,1.3-11.4
		c0.2-7.5-0.6-14.8-1.6-22l-1.6-10.7l-0.6-4.4c0-0.3-0.1-0.9,0.1-0.9c0.2,0.1,0.5,0.1,0.7,0.1l0.1,0l1.1,0c0.7,0,1.5-0.1,2.2-0.2
		c2.9-0.4,6-1.8,8.2-4c2.3-2.1,3.6-4.8,4.5-7.4c0.5-1.3,0.8-2.6,1-4c0.3-1.4,0.3-2.7,0.3-4c0-10.4-2.7-19.4-4.8-28.5
		c-2.3-9.1-4.5-18.1-6-27.1c-1.4-8.9-2.3-18.2-0.6-26.3c0.5-2.2,1.3-4.3,2.3-5.8c1-1.5,2.1-2.3,3.1-2.3c1.1-0.1,2.7,0.6,4.3,1.8
		l0.7,0.5c0.6,0.4,0.8,0.5,1,0.7c0.5,0.3,0.8,0.6,1.2,0.9c0.7,0.6,1.3,1.3,1.9,2.1c2.3,3.3,3.4,7.9,3.9,12.7
		c0.6,4.8,0.7,9.9,0.8,15.1c0.2,5.2,0.3,10.4,0.9,15.8c0.4,2.7,0.8,5.5,1.7,8.4c0.3,0.8,0.4,1.4,0.9,2.3c0,0,0,0.1,0.1,0.1
		c-0.2,69.8-0.4,139.6-0.6,209.5l-6.9,2.4l-2.2,0.8c-0.9,0.3-1.7,0.7-2.5,1.1c-0.9,0.5-1.7,1-2.6,1.6l-0.4-0.2l-1.2,0.3
		c-6.4,1.3-11.7,5.3-15.2,10.5c-0.3,0.5-0.6,0.9-0.9,1.3c0,0,0,0.1-0.1,0.1c-1.7,2.7-2.9,5.8-3.5,9c-1.8,9.2,1.7,19.2,9,25.4
		c0.5,0.4,0.8,0.7,1.5,1.2c0.4,0.3,0.7,0.6,1.2,0.8l0.2,0.1c0,0.3-0.1,0.6-0.1,0.9l-1.7,124.2l-0.8,62.1l-0.2,23.4
		c-8.6,3.4-17.9,5.8-27.1,7.6c-13.7,2.6-27.8,3.9-41.8,4.1c-14,0.2-28.1-0.6-42-2.7C345.4,922.1,331.7,918.8,319.2,913.2z
		 M383.6,247L383.6,247C383.6,247,383.6,247,383.6,247c1.4,0.1,2.6-0.1,2.7-0.6c0.9-6.1,2.6-12,4.6-18c2-5.9,4.3-12.1,5.6-18.6
		l0.7-3.3l0.3-1.6l0.1-0.4l0-0.1l0-0.1c0.1-0.2,0.1-0.3,0.2-0.3c0-0.2,0.2,0.2,0.2,0.3c0.1,0.5-0.2-1.2,0.6,3.1
		c1,5.9,0.1,12.4-0.8,19.3c-0.9,6.8-1.9,13.5-2.7,20.6c-0.2,1.7-0.3,3.8-0.2,5.7c0,0.5,0,0.9-0.1,1.4c-0.1,0.7-0.2,1.3-0.4,1.9
		c0,0.1,0,0.1-0.1,0.2c-0.3,1.1-1,2-1.7,2.7c-0.1,0.1-0.2,0.1-0.3,0.2c-0.7,0.5-1.3,0.8-1.8,0.8c-0.6,0.1-1.1-0.2-1.8-0.7
		c-0.1-0.1-0.1-0.2-0.2-0.3c-0.2-0.3-0.5-0.6-0.7-1c-0.2-0.6-0.5-1-0.7-1.7c-0.1-0.2-0.1-0.4-0.2-0.7c-0.1-0.3-0.2-0.6-0.2-0.8
		c-0.5-2.2-0.6-4.6-0.6-7C386.2,247.6,385.1,247.2,383.6,247C383.7,247,383.7,247,383.6,247C383.6,247,383.6,247,383.6,247z
		 M571.9,568.5c0-0.9,0-1.8,0.1-2.7c0.1-1.8,0.7-4.4,0.7-4.5c0-0.1,0.1-0.1,0.1-0.1c0,0,0.1,0.1,0.2,0.2c0.4,2.2,1,5.1,1.7,7.5
		c1.3,5.1,3.1,10,4.6,14.7c2,5.7,3.7,11.3,4.6,17.2c0.1,0.4,1.2,0.6,2.6,0.5c0,0,0,0,0.1,0c0,0,0,0,0,0c0,0,0,0,0,0
		c-1.4,0.1-2.6,0.6-2.6,1c0,2.4-0.1,4.7-0.6,6.8c-0.1,0.2-0.1,0.5-0.2,0.7c-0.1,0.2-0.1,0.4-0.2,0.6c-0.2,0.6-0.5,1.1-0.7,1.6
		c-0.2,0.4-0.5,0.7-0.7,1c-0.1,0.1-0.1,0.1-0.2,0.2c-0.7,0.5-1.1,0.9-1.7,0.7c-0.5,0-1.1-0.3-1.8-0.8c-0.7-0.5-1.4-1.3-1.7-2.3
		c-0.2-0.4-0.3-0.8-0.4-1.3c-0.1-0.4-0.1-0.8-0.2-1.2c0-0.2-0.1-0.3-0.1-0.5c0-0.5,0-0.9,0-2.1c0-0.9-0.1-1.8-0.1-2.6
		c-0.8-8.9-2.2-17.4-3.1-25.8c-0.1-0.7-0.1-1.4-0.2-2c-0.1-0.8-0.2-1.7-0.3-2.5C571.9,571.4,571.9,570,571.9,568.5
		C571.9,568.6,571.9,568.5,571.9,568.5z"/>
	<path d="M659.2,657.2c0.4-0.2,0.3-1.4-0.3-2.7c0,0,0,0,0-0.1c0,0,0,0,0,0c-0.6-1.3-1.4-2.1-1.9-1.9c-3.2,1.3-6.5,2.6-9.8,3.8
		c-0.9,0.3-1.7,0.6-2.6,0.9c-42.2,15.3-87.1,22.6-131.9,20.4c-2.2-0.1-4.3-0.3-6.5-0.4c-0.4,0-0.8,0-1.1-0.1
		c-0.8-0.1-1.6-0.1-2.4-0.2c-0.5,0-1,1-1.2,2.4c0,0,0,0,0,0v0c-0.2,1.4,0,2.6,0.5,2.7c1,0.2,2.1,0.3,3.1,0.5
		c3.5,0.6,7.1,1.1,10.6,1.5c8.8,1,17.7,1.6,26.5,1.7c33.5,0.2,67.9-6.5,98.7-19.6c1.2-0.5,2.4-1.1,3.7-1.7
		C649.6,662.1,654.4,659.8,659.2,657.2z"/>
</g>
</svg>
