<?xml version="1.0" encoding="utf-8"?>
<!-- Generator: Adobe Illustrator 28.0.0, SVG Export Plug-In . SVG Version: 6.00 Build 0)  -->
<svg version="1.1" id="Layer_1" xmlns="http://www.w3.org/2000/svg" xmlns:xlink="http://www.w3.org/1999/xlink" x="0px" y="0px"
	 viewBox="0 0 1000 1000" style="enable-background:new 0 0 1000 1000;" xml:space="preserve">
<style type="text/css">
	.st0{fill:#FFFFFF;}
	.st1{fill:#FFFFFF;stroke:#000000;stroke-miterlimit:10;}
	.st2{fill:#FFFFFF;stroke:#000000;stroke-linecap:round;stroke-linejoin:round;stroke-miterlimit:10;}
	.st3{fill:none;stroke:#000000;stroke-miterlimit:10;}
	.st4{fill:#FFFFFF;stroke:#000000;stroke-width:2;stroke-miterlimit:10;}
	.st5{fill:none;stroke:#000000;stroke-width:2;stroke-miterlimit:10;}
	.st6{stroke:#000000;stroke-width:2;stroke-miterlimit:10;}
</style>
<path d="M900,449.4c-1.4-2.9-2.7-4.8-4-7.1l-4-6.7c-10.6-17.9-21.2-35.7-31.8-53.6c-8.4-14.3-17.2-28.9-27.6-42.2
	c-10.3-13.4-21.7-25.8-34.2-37.2c-24.9-22.7-53.9-41-85-53.6c-4.4-1.7-8.4-2.2-8.9-1c0,0,0,0.1,0,0.1c-0.4,1.3,2.7,3.7,7,5.5
	c30.4,12.7,58.6,30.8,82.7,53.2c12.1,11.2,23.2,23.5,33.1,36.6c10.1,13.1,18.4,27.2,26.8,41.7l25.3,43.2L892,450
	c4,6.2,4.2,14.1,0.8,20.3c-17.8,28.1-35.6,56.2-53.5,84.3l-6.7,10.6l-3.4,5.3c-1.2,1.9-2,3.1-3.2,4.4c-2.4,2.5-5.4,4.4-8.8,5.4
	c-1.7,0.5-3.4,0.7-5.1,0.8c-0.9,0-1.6,0-2.7-0.1l-3.1-0.3l-49.9-4.5l-25-2.2l-12.5-1.1l-12.3-1.4c-16.3-2.2-32.4-5.8-48.1-10.8
	c-8.6-2.7-17-5.9-25.3-9.4c-1.1-0.5-2.1-0.9-3.2-1.4c-1.1-0.5-2.2-1-3.3-1.5c-19.6-9-38.2-20.1-55.2-33.4c-3.3-2.5-6.5-5.1-9.6-7.8
	c-3.2-2.6-6.2-5.4-9.2-8.2c-4.1-3.8-8.2-7.8-12.3-11.8c-0.6-0.6-1.2-1.2-1.8-1.8c-0.6-0.6-1.2-1.2-1.9-1.8c-0.7-0.6-1.3-1.3-2-1.9
	l-35.7-35.2c-38-37.3-76-74.6-114-111.9c0,0,0,0,0,0l3.4-5.3c32.7-51.5,65.6-103.3,98.7-155.5c0.2-0.3,0.3-0.6,0.4-0.8
	c6.6,2.4,13.2,4.8,19.9,7.2c62.7,22.6,125.4,45.1,187.9,67.6c4.4,1.6,8.4,1.9,8.9,0.7c0,0,0,0,0,0c0.5-1.3-2.7-3.6-7.2-5.3
	l-187.9-69.2l-22.6-8.3c-0.3-0.4-0.7-0.8-1.2-1.1c-0.7-0.5-1.6-0.9-2.5-1.2l-1.9-0.7l-2.7-1c-3.6-1.3-7.1-2.8-10.6-4.2
	c-7-2.9-14-6-20.9-9.3c-13.7-6.6-27.2-13.9-40.1-21.9c-13-8-25.5-16.8-37.5-26.2c-12.3-9.6-24.6-19.2-36.9-28.7
	c-1.6-1.2-3.5-1.7-5.4-1.4c-1.9,0.3-3.5,1.6-4.7,3l-4.3,4.6c-2.8,3.1-5.7,6.2-8.4,9.4c-5.5,6.3-10.8,12.7-15.9,19.3
	c-10.3,13.1-19.9,26.7-28.6,40.8c-16.4,26.8-30,55.1-40.8,84.6c-0.8,1.9,0.2,4.1,1.4,4.6c1.1,0.7,2,0.3,2.3-0.3c0,0,0,0,0-0.1
	c0,0,0,0,0,0l0,0c-0.6,1.2,0.5,3,2.5,4l40.4,20.6c13.4,6.9,26.3,14.4,38.9,22.7c12.5,8.2,24.6,17.2,36.2,26.7
	c5.2,4.2,10.2,8.6,15.1,13.1c8.2,8.1,16.4,16.2,24.6,24.3c29.7,29.3,59.5,58.6,89.3,88l44.7,44l12.4,12.2l-29.5,46.2
	c-0.8-0.2-1.4-0.2-2.4,0.3l-3.7,1.3l-5,4l-1.2,1l-0.6,0.5l-1.3,1c-1.7,1.3-3.4,2.5-5.2,3.7c-3.5,2.4-7,4.7-10.7,6.9
	c-3.6,2.2-7.4,4.2-11.1,6.1c-1.9,0.9-3.8,1.9-5.7,2.8c-1.9,0.9-3.7,1.6-6.2,2.9c-4.5,2.6-8.1,6.9-9.8,11.8
	c-1.7,4.9-1.6,10.3,0.3,15.1c0.5,1.2,1.1,2.3,1.7,3.4l1.1,1.6l1,1.3l3.9,5.2l5.9,7.7l-20.1,31.5l-1.1,0.2c-0.9,0.2-1.7,0.2-3.1,1.2
	l-3.9,3l-2.8,2l-3.9,2.7c-2.6,1.7-5.3,3.4-8,5c-2.7,1.6-5.5,3.1-8.3,4.4c-1.4,0.7-2.8,1.4-4.2,2l-1.1,0.5l-1.3,0.7
	c-0.9,0.4-1.7,1.1-2.6,1.6c-6.6,4.9-9,14.1-6,21.4c0.6,1.8,1.8,3.6,2.8,4.9l3,3.8l3.5,4.4c-7.3,11.5-14.6,23-21.9,34.5
	c-6.6,10.4-13.3,20.9-19.9,31.4l-10,15.8c-2.6,4.3-3.6,9.5-3,14.5c-1.2,1.2-2,2.7-2.1,4.5l-1.6,21.1l-0.7,10.1l-0.4,5.1l-0.2,2.6
	c-0.1,1.1,0,2.2,0.1,3.4c0.6,4.5,3.1,8.6,6.6,11.3c0.4,0.4,0.9,0.7,1.4,1l1.1,0.7l2.2,1.3l4.3,2.7l7.4,4.5
	c-16.8,12.5-36.4,21.2-56.8,25c-2.9,0.4-5.8,1.2-8.8,1.4l-8.8,0.8c-5.9-0.1-11.8,0.2-17.7-0.6c-3.1-0.3-6.2-0.8-9.2-1.4
	c4.6-5.5,8.7-11.6,11.8-18.3c3.5-7.6,5.9-16.2,5.8-25.1c0-9-2.8-18-8-25.4c-5.1-7.4-13-13.6-22.5-15.7c-9.6-2.1-19.6,0.6-27.1,5.9
	c-7.6,5.2-13.4,12.8-16.2,21.7c-2.8,9-2.3,18.4,0.4,26.9c2.7,8.5,7.5,16,13.6,22.3c5.7,5.9,12.5,10.3,19.7,13.6
	c-1.5,1.2-2.9,2.4-4.4,3.5c-19,13.7-43.2,20.6-66.6,17.6c-23.4-2.9-45.9-14.6-61.4-32.7c-1.1-1.3-3.2-1.3-4.8-0.1
	c-1.6,1.2-2,3.4-0.9,4.9c16.1,20.2,40.2,33.8,65.9,37.7c25.9,3.9,53.1-3.1,74.5-18.1c3.5-2.5,6.9-5.2,10.2-8.1
	c12.3,3.4,25.1,4.3,37.5,3.6c30.7-1.8,60-14.3,83.2-33.4l0.5,0.3l4.3,2.7l2.2,1.3c0.9,0.6,1.9,1.1,2.9,1.4c4.1,1.6,8.8,1.4,12.7-0.4
	c2-0.8,3.9-2.2,5.2-3.6l3.6-3.5l7.2-7.1c9.6-9.5,19.2-19,28.7-28.4c0.4-0.4,0.3-1.1,0-1.8c6.8-0.5,13.3-3.1,18.5-7.5
	c9.6-8.6,18.4-17.2,27.2-26.1c35-35.7,66.6-75,93.1-117.4c13-21.3,25.3-43.2,35-66.2l3.8-8.5c1.2-2.9,2.2-5.8,3.3-8.7l6.6-17.5
	l5.4-17.9c0.5-1.6,1-3.2,1.5-4.8c15.9,6.7,32.5,11.9,49.3,15.7c10.4,2.2,20.8,4.1,31.4,5.1c10.6,1.2,20.9,1.9,31.3,2.9
	c20.8,1.8,41.6,3.6,62.4,5.4l3.9,0.3c1.5,0.1,3.1,0.1,4.6,0c3-0.3,6-1.1,8.8-2.3c2.8-1.3,5.4-3,7.6-5.1c1.1-1,2.1-2.2,3.1-3.4
	c0.5-0.6,0.9-1.2,1.3-1.9l1.1-1.7l16.7-26.5c11.1-17.7,22.2-35.3,33.3-52.9l8.3-13.2l4.2-6.6c1.6-2.6,2.7-5.4,3.4-8.3
	C903.3,461.2,902.6,454.9,900,449.4z M235.3,883.8c-9.5-5.7-16.8-14.7-20.1-25c-1.6-5.1-2.1-10.4-1.3-15.4c0.8-4.9,3.1-9.6,6.4-13.5
	c3.3-3.9,7.6-7,12.2-8.5c4.6-1.5,9.4-1.4,13.9,0.3c8.9,3.5,15.8,13.4,17.1,23.7c1.4,10.5-2.1,21.7-8.1,31.4
	c-2.7,4.4-5.8,8.5-9.3,12.3C242.4,887.6,238.7,885.9,235.3,883.8z M584,653.7c-19.4,34.3-42.4,66.6-67.6,97
	c-12.8,15.1-26,29.7-39.9,43.8c-6.9,7-14,13.9-21.2,20.7c-1.8,1.6-3.7,3.5-5.4,4.9c-1.6,1.4-3.4,2.5-5.3,3.4c-3,1.4-6.4,2.2-9.7,2.2
	c-0.8,0-1.7,0-2.5-0.1c-1.1-0.1-2-0.3-3.2-0.5l-3.6-0.8l-7.3-1.6l-5.9-1.3l-3-0.7l-5.6-1.2l-2.5-0.5l-26.6-5.8l-7.3-1.6l-1.4-0.3
	l-2.2-0.5c-1.2-0.3-2.5-0.5-3.3-0.8c-1-0.3-1.9-0.7-2.8-1.2c-2.5-1.4-4.5-3.4-5.8-6c0-0.1-0.1-0.2-0.1-0.2c-0.8-1.5-1.2-3.2-1.4-4.9
	c-0.2-2.1,0-4.1,0.6-6.1c0.3-0.9,0.7-1.8,1.2-2.6c0.4-0.8,1.3-2,1.9-3l4-6.3c14.8-23.6,29.6-47.3,44.4-70.9c0.5-0.8,1-1.5,1.4-2.3
	c5.8-9.3,11.6-18.5,17.4-27.8c2.9-4.7,5.8-9.4,8.8-14.1c3.4-5.4,6.7-10.8,10.1-16.2c6.2-9.9,12.4-19.8,18.5-29.7
	c0.4-0.7,0.9-1.4,1.3-2.2c12.1-19.4,24.2-38.8,36.3-58.2c3.7-5.9,7.4-11.9,11.1-17.8c9.6-15.3,19.1-30.6,28.6-46l6.2,6.1
	c7.7,7.3,15.6,14.4,24.1,20.9c18,14.1,37.7,25.8,58.5,35.1C615.2,590.5,601.2,623,584,653.7z"/>
</svg>
