<?xml version="1.0" encoding="utf-8"?>
<!-- Generator: Adobe Illustrator 28.0.0, SVG Export Plug-In . SVG Version: 6.00 Build 0)  -->
<svg version="1.1" id="Layer_1" xmlns="http://www.w3.org/2000/svg" xmlns:xlink="http://www.w3.org/1999/xlink" x="0px" y="0px"
	 viewBox="0 0 1000 1000" style="enable-background:new 0 0 1000 1000;" xml:space="preserve">
<style type="text/css">
	.st0{fill:#FFFFFF;}
	.st1{fill:#FFFFFF;stroke:#000000;stroke-miterlimit:10;}
	.st2{fill:#FFFFFF;stroke:#000000;stroke-linecap:round;stroke-linejoin:round;stroke-miterlimit:10;}
	.st3{fill:none;stroke:#000000;stroke-miterlimit:10;}
	.st4{fill:#FFFFFF;stroke:#000000;stroke-width:2;stroke-miterlimit:10;}
	.st5{fill:none;stroke:#000000;stroke-width:2;stroke-miterlimit:10;}
	.st6{stroke:#000000;stroke-width:2;stroke-miterlimit:10;}
</style>
<g>
	<path d="M480,453.9l-2.4-6.5c-2.5,0.9-6,2-10.5,3.3c-16,4.4-45.3,10.1-89.6,10.1c-44.3,0-73.5-5.7-89.6-10.1
		c-4.5-1.2-8-2.4-10.5-3.3l-1.2,3.3v0l-1.2,3.3c11.5,4.1,44.6,13.8,102.4,13.8C435.4,467.6,468.4,458,480,453.9z"/>
	<path d="M847.2,862c-1.8-1.7-3.6-3.4-5.4-5c-3.7-3.3-7.4-6.5-11.3-9.6c-3.8-3.2-7.8-6-11.8-9c-4.1-2.8-8.1-5.6-12.4-8.1
		c-16.8-10.4-35.4-18.5-54.9-22.6c-19.6-4.3-39.7-4-59.2-1.6c-0.3,0-0.6,0.1-0.9,0.1c7.7-6.2,14.9-12.9,21.7-20.1
		c11.6-12.8,22.3-26.7,30.9-41.9c8.6-15.2,15.2-31.5,20.1-48.3c4.8-16.8,7.7-34.2,8.7-51.7c0.2-4.4,0.4-8.8,0.4-13.1l0-3.5
		c0-2.1-0.1-4.3-0.2-6.4l-0.2-6.4c-1.8,0.7-3.7,1.9-5.6,2.8l-14.5,7.6l-11.4,6.4c-19.9,11.6-39.3,24.7-56.6,40.2
		c0.5-10.2,0-20.4-1.4-30.5c-1.9-13.2-5.3-26.2-10.1-38.6c-1.2-3.1-2.5-6.2-3.9-9.2l-2.1-4.5c-0.8-1.6-1.2-2.4-2.9-5.7l-2.2-4.1
		l-0.1-0.3c-0.1,0-0.2,0.1-0.2,0.1l-0.5,0.3l-1,0.5l-2,1.1l-3.7,2l-2.2,1.2c-2.9,1.6-5.7,3.4-8.5,5.1c-11.2,7.1-21.7,15.2-31.4,24.2
		c-5.6,5.2-10.9,10.8-15.9,16.6c-5.4-10.7-10.7-21.4-15.9-32.1v-69.8c0-31.8-18.6-60.9-47.4-74.3l-18-8.4c-3.5-1.6-5.8-5.2-5.8-9.1
		v-54.2c0-15.4-56-21.7-101.6-23.6l71.5-315.3c0.8-3.6,0.2-7.4-1.8-10.5c-2-3.1-5.1-5.3-8.7-6.2c-7.5-1.7-15,3-16.7,10.5
		l-60.7,267.8V40.2c0-7.7-6.2-13.9-13.9-13.9c-7.7,0-13.9,6.2-13.9,13.9v264.7L302.9,37.2c-1.7-7.5-9.2-12.2-16.7-10.5
		c-3.6,0.8-6.7,3-8.7,6.1c-2,3.1-2.6,6.9-1.8,10.5l71.5,315.3c-45.6,1.9-101.6,8.1-101.6,23.6v54.4c0,3.9-2.3,7.5-5.8,9.1l-17.8,8.2
		c-28.9,13.3-47.6,42.6-47.6,74.4v303.5c0,15,39.5,29.7,94.1,38.7l-0.3,0.3l13.2,7.4c2.8,1.5,5.5,3.2,8.4,4.6
		c5.7,2.9,11.4,6,17.3,8.5c11.6,5.5,23.7,10.1,35.9,14.1c24.5,7.8,50.6,12,76.5,9.9c12.9-1,25.8-3.6,38-8
		c12.1-4.3,23.7-9.5,35.3-14.9c0.8-0.4,1.6-0.8,2.5-1.2c-0.3,0.5-0.7,0.9-1,1.4c-1.1,1.9-2.3,3.7-3.1,5.8c-1,2-1.6,4.2-2.1,6.4
		c-0.3,1.1-0.3,2.3-0.5,3.4c-0.2,1.2-0.2,2.3-0.2,3.4c0.1,4.5,1.1,8.8,2.7,12.9c1.7,4.4,4.4,8.1,7.9,11.1c3.4,3,7.3,5.1,11,6.8
		c3.7,1.7,7.4,3.2,10.9,4.8c7.1,3.1,14,6.5,20.5,10.5c3.2,2,6.4,4.2,9.5,6.5c1.5,1.1,3.1,2.3,4.6,3.5l2.6,2.2l4.2,3.6l4.2-3.7
		l2.6-2.2c1.5-1.2,3-2.4,4.5-3.6c3-2.4,6.2-4.6,9.4-6.7c6.4-4.2,13.2-7.8,20.2-10.9c7-3.3,14.7-6,21.2-11.6
		c3.2-2.9,5.8-6.4,7.4-10.5c1.5-3.9,2.4-8,2.5-12.2c0-1.2-1-2.1-2.3-2.1c0,0,0,0,0,0c-1.3,0-2.3,0.9-2.4,1.9
		c-0.2,3.6-1.1,7.2-2.5,10.5c-1.3,3.2-3.6,6-6.2,8.2c-5.4,4.5-12.9,6.9-20.1,10.1c-7.3,3-14.5,6.6-21.3,10.8
		c-3.4,2.1-6.7,4.3-9.9,6.7c-1.6,1.2-3.2,2.4-4.7,3.7l-2.2,1.8l-0.2,0.2l0,0l-0.2-0.2l-1.9-1.6c-1.5-1.3-3.1-2.5-4.7-3.8
		c-3.2-2.5-6.5-4.8-9.9-7c-6.8-4.4-14-8.1-21.3-11.3c-7.2-3.3-14.7-6-19.8-10.4c-2.5-2.2-4.5-5-5.7-8c-1.3-3.2-2-6.7-2.1-10.2
		c-0.1-1.7,0.2-3.3,0.4-4.9c0.4-1.6,0.8-3.2,1.6-4.8c1.3-3.2,3.4-6.2,5.7-9c4.6-5.4,10.3-10,16.4-14.1c0.2-0.1,0.4-0.3,0.6-0.4
		c6.4-4.2,13.2-7.8,20.2-10.9c1.3-0.6,2.6-1.1,3.9-1.7c2.2-0.9,4.5-1.9,6.8-2.7c1.8-0.7,3.6-1.4,5.5-2l1.6-0.5l0.5,3
		c-0.1,0.6,0.4,0.1,0.6,0l0.1-0.1c-0.8,20.3-0.6,40.8,0.4,61.1c0,0.2,0.5,0.4,1.2,0.4c0.6,0,1.2-0.2,1.2-0.4
		c0.3-5.9,0.5-11.7,0.6-17.6c0.3-14.4,0.3-29.2-0.2-43.6l0.9,0.7c0.1,0.1,0.2,0,0.2-0.1l0.1-0.4l0.1-0.7l0.2-1.4l0.1-0.8l0.9,0.3
		c1.8,0.5,3.5,1.1,5.2,1.7c2,0.7,3.9,1.4,5.9,2.2c10.5,5.7,21.2,11.3,31.9,16.7c3.5,2.5,6.7,5.2,9.7,8.2c1.2,1.4,2.6,2.7,3.7,4.2
		l1.7,2.2l1.4,2.3c1.1,1.5,1.6,3.2,2.4,4.8c0.4,1.7,1.1,3.4,1.2,5.1c0.1,1,1.2,1.7,2.5,1.7c0,0,0,0,0.1,0c1.3,0,2.2-1,2.1-2.2
		c-0.5-6.8-3.7-12.8-7.7-18c2.1,1,4.2,2.1,6.4,3.1c11.7,5.4,23.4,10.6,35.7,14.9c12.4,4.4,25.4,6.7,38.4,7.7
		c25.5,1.8,51.2-2.5,75.5-10.2c12.1-4,24.1-8.5,35.6-14c5.9-2.6,11.4-5.6,17.2-8.5c2.9-1.4,5.6-3.1,8.4-4.6l13.1-7.4L847.2,862z
		 M705.8,908.2c-12.4-0.8-24.6-3.1-36.3-7.2c-11.8-4-23.4-9-34.9-14.1c-6.9-3.1-13.8-6.3-20.7-9.6c-13-6.2-25.9-12.6-38.6-19.3
		c1-0.2,2-0.4,3-0.5c17.4-3.2,34.4-8.3,50.8-14.9c5.6-0.2,11.1-0.2,16.7,0.1c8.7,0.5,17.4,1.8,26,3.2c17.4,2.9,34.8,6.1,52.3,8.4
		c17.5,2.1,35,4.1,52.5,6.1c0.6,0.1,1.2-0.4,1.2-1c0.1-0.6-0.4-1.2-1-1.3c-17.4-2.5-34.8-5.1-52.3-7.4c-10.8-1.5-21.6-3.5-32.4-5.4
		c-10.8-1.9-21.7-4-32.7-5.4c-6.8-0.9-13.7-1.3-20.6-1.4c2.4-1.1,4.8-2.1,7.2-3.3c11.6-5.7,22.8-12.4,33.4-19.9
		c11-1.8,22.2-3.3,33.3-3.3c12.6-0.3,25.3,0.6,37.5,3.4c12.2,2.8,24.2,7,35.5,12.7c11.3,5.6,22.1,12.3,32.3,19.9
		c2.6,1.9,5.1,3.8,7.5,5.8c2.5,2,5,4,7.3,6.1c2.4,2.1,4.8,4.1,7.1,6.4l2.9,2.8l0,0c0,0,0,0,0,0l-3.4,1.9c-2.8,1.5-5.4,3.2-8.3,4.6
		c-5.6,2.8-11.1,5.9-16.9,8.4c-11.3,5.5-23,10-34.9,13.9C755.6,905.7,730.6,909.9,705.8,908.2z M345,897.8
		c-11.7-4-23.4-8.4-34.6-13.9c-5.7-2.5-11.2-5.5-16.8-8.4c-1.2-0.6-2.4-1.3-3.7-2c-1.5-0.9-3-1.7-4.6-2.6l-3.4-1.9c0,0,0,0,0,0l0,0
		l0,0l0.1-0.1l1.2-1.1c0.7-0.7,1.5-1.3,2.2-2c1-1,2-1.9,3.1-2.8c3.6-3.2,7.2-6.3,10.9-9.3c3.7-3.1,7.6-5.8,11.4-8.7
		c4-2.7,7.8-5.4,11.9-7.9c16.2-10,33.8-17.8,52.3-21.8c18.5-4.2,37.7-4.1,56.6-2c4.8,0.6,9.5,1.2,14.2,2.1
		c10.6,7.5,21.7,14.1,33.3,19.7c2.4,1.1,4.8,2.2,7.1,3.3c-2.8,0-5.5,0-8.3,0.2c-8.9,0.5-17.8,1.7-26.5,3.2
		c-17.4,3-34.7,6.3-52.1,8.9c-17.4,2.5-34.8,4.9-52.2,7.4c-0.6,0.1-1.1,0.7-1,1.3c0.1,0.6,0.6,1.1,1.3,1c17.5-2,35-4,52.6-6.2
		c10.9-1.4,21.7-3.2,32.6-5c10.9-1.8,21.7-3.9,32.6-5.3c10.3-1.4,20.6-1.8,31-1.3c11,4.4,22.3,8.2,33.8,11.1
		c2.3,0.6,4.6,1.2,6.9,1.7c2.4,0.6,4.9,1,7.3,1.5c0.5,0.1,1.1,0.2,1.6,0.3c-2.5,0.9-5,1.9-7.4,3c-7.4,3.2-14.6,6.9-21.5,11.3
		c-3.7,2.4-7.3,5-10.7,7.9c-5.6,2.6-11.2,5.2-16.8,7.7c-11.6,5.1-23.4,10.2-35.3,14.1c-11.8,4.1-24.2,6.1-36.7,6.9
		C393.1,909.7,368.5,905.4,345,897.8z M181.4,528.3c0-29.2,17.1-55.9,43.6-68.1l17.8-8.2c6-2.8,9.8-8.8,9.8-15.4v-54.4
		c0.5-5.3,33.8-14.5,96.2-16.8l0.9,4.1c-39.7,1.4-63.4,5.5-74.2,7.8c-2.3,0.5-3.9,2.5-3.8,4.9c0,2.3,1.6,4.3,3.9,4.8
		c11.7,2.6,38.1,7,82.6,8.1c1.8,0.1,3.6,0.1,5.4,0.1l3.4,0.1c2.7,0,5.5,0.1,8.2,0c0.8,0,1.6,0,2.4,0c0.8,0,1.5,0,2.2,0
		c2.7,0,5.4,0,8,0c0.1,0,0.2,0,0.2,0l3.4-0.1v0c1.8,0,3.7-0.1,5.4-0.1l1,0l1.7-0.1v0c42.9-1.2,68.4-5.5,80-8
		c2.3-0.5,3.9-2.5,3.9-4.8c0-2.3-1.6-4.4-3.9-4.9c-10.8-2.4-34.6-6.4-74.2-7.8l0.9-4.1c62.4,2.2,95.7,11.5,96.2,16.8v54.2
		c0,6.6,3.8,12.6,9.8,15.4l18,8.4c26.4,12.2,43.4,38.9,43.4,68v55.3l-2.9-6.2l-2.6-5.5c-0.6-1.4-1.3-2.6-1.9-3.7l-1-1.7l-0.5-0.9
		c-0.2-0.2-0.3-0.7-0.5-0.7c-0.6-0.1-1.3-0.4-1.8-0.4l-1.7,0c-0.3,0-0.6,0-1,0.1l-1,1.9l-1.9,3.7l-4.9,10.3
		c-5.1,10.7-10.3,21.4-15.7,32c-2.8,5.7-5.7,11.4-8.6,17c-4.9-5.7-10.1-11.1-15.6-16.1c-9.7-9-20.2-17.1-31.5-24.2
		c-3.5-2.2-7-4.3-10.6-6.3l-4.8-2.6l-2.6-1.4c-0.5,0.8-0.9,1.7-1.4,2.5l-2.5,4.9l-1.4,2.8c-3.6,7.4-6.7,15.2-9.3,23.1
		c-5.1,15.8-8,32.3-8.3,49.1c-0.1,3.5,0,7.1,0.2,10.6c-6.9-6.1-14.1-11.9-21.5-17.4c-11.2-8.3-23-15.7-35-22.7
		c-6-3.5-12.1-6.9-18.2-10l-7.5-3.9l-4.5-2.3l-1.1-0.6c-0.3-0.2-0.1,0.2-0.2,0.4l0,0.6l-0.1,2.6l-0.2,5.1l-0.1,2.6l0,2.3
		c0,1.8,0,3.5,0,5.3c0.4,28,5.5,56,15.7,82.1c10.2,26.1,25.2,50.3,44.6,70.6c6.8,7.2,14.2,13.9,21.8,20.1c-7.1-1-14.2-1.7-21.3-1.8
		c-13.1-0.5-26.5,0.4-39.4,3.2c-12.9,2.9-25.5,7.2-37.4,13.1c-11.9,5.8-23.1,12.8-33.6,20.6c-2.7,1.9-5.3,3.9-7.8,6
		c-2.6,2.1-5.1,4.1-7.6,6.3c-2.4,2.2-5,4.3-7.3,6.5l-4.3,4.1c-56.9-9-93.7-23.7-93.7-32.6V528.3z M283.4,36.5c1-1.6,2.5-2.7,4.4-3.1
		c3.8-0.9,7.5,1.5,8.4,5.3l67.5,297.6v21.9v3.5v3.5v4.1v3.5v3.5v12.1v0c-0.8,0-1.7,0-2.5,0l0,0l-2.7-12l-0.8-3.5l-0.8-3.5l-0.9-4.1
		l-0.8-3.4l-0.8-3.4L282.5,41.8C282.1,40,282.4,38.1,283.4,36.5z M370.6,335.5V40.2c0-3.8,3.1-7,7-7c3.8,0,7,3.1,7,7v295.3v15.7v6.8
		v3.5v3.5v2v2.2v3.5v3.5v12.3v0c-0.1,0-0.3,0-0.4,0c-0.5,0-1,0-1.5,0c-1,0-1.9,0-2.9,0c0,0,0,0,0,0c-0.2,0-0.4,0-0.6,0
		c-0.5,0-1,0-1.5,0c-0.5,0-1,0-1.5,0c-0.2,0-0.4,0-0.6,0c-0.1,0-0.1,0-0.2,0c-0.9,0-1.8,0-2.7,0c-0.7,0-1.3,0-2,0v0v-12.3v-3.5v-3.5
		v-2.3V365v-3.5V358v-6.9V335.5z M467.3,33.4c1.8,0.4,3.4,1.5,4.4,3.1c1,1.6,1.3,3.4,0.9,5.3l-71.8,316.6l-0.8,3.4l-0.8,3.4
		l-0.9,4.1l-0.8,3.5l-0.8,3.5l-2.7,12l0,0c-0.3,0-0.7,0-1,0c-0.5,0-1,0-1.6,0v-12.1v-3.5v-3.5v-4.1v-3.5v-3.5v-21.8L459,38.7
		C459.8,34.9,463.6,32.6,467.3,33.4z M593,639.5c0.6,1.1,1.1,2.1,1.7,3.2c3,5.6,5.9,11.2,9,16.7c4.2,7.5,8.4,15,12.6,22.5
		c3.9,7.5,7.5,15.2,10.5,23.1c4.4,11.9,7.4,24.4,7.9,37.1c-0.1,0.3-0.2,0.5-0.3,0.8c-5.9,16-12.8,31.4-21.2,46.1
		c-9.7,17.2-21.2,33.4-34.3,48.3c-1.6,1.8-3.1,3.5-4.7,5.2c-1.7,1.8-3.3,3.6-5,5.3c0,0-0.1,0.1-0.1,0.1c-0.7,0.7-1.3,1.3-2,2
		c-0.7,0.7-1.4,1.4-2.1,2.1c-0.3,0.2-0.5,0.3-0.7,0.5c-0.3,0.2-0.5,0.3-0.7,0.5c0-0.2,0-0.5,0-0.7c0-0.4,0-0.8,0-1.2
		c0-0.6,0-1.2,0-1.8c0-0.1,0-0.3,0-0.4c0-1.2,0-2.5,0.1-3.7c0-1.2,0-2.5,0.1-3.7c0-0.7,0-1.5,0-2.2c0.2-9.7,0.3-19.3,0.4-29
		c0.2-23.7,0.2-47.4,0-71.1c0-6.1-0.1-12.2-0.2-18.3c0-0.2,0-0.4,0-0.6c0-2.2-0.1-4.5-0.1-6.7c0-0.4,0-0.7,0-1.1
		c-0.1-3.9-0.1-7.7-0.2-11.6c0-0.2,0-0.4,0-0.6c0-2.8-0.1-5.6-0.1-8.3c0-2.9-0.1-5.8-0.1-8.7c0-0.5-0.5-0.9-1.2-0.9c0,0,0,0,0,0
		c-0.6,0-1.2,0.4-1.2,0.9c0,2.3-0.1,4.5-0.1,6.8c-0.1,3-0.1,6-0.2,9c0,1.4-0.1,2.7-0.1,4.1c0,2.1-0.1,4.2-0.1,6.3
		c0,2.7-0.1,5.3-0.1,8c0,1,0,2,0,2.9c0,0.1,0,0.1,0,0.2c0,2.2-0.1,4.3-0.1,6.5c-0.1,6.9-0.1,13.8-0.1,20.7
		c-0.1,17.5-0.1,35.1,0,52.7c0.1,12.1,0.2,24.2,0.3,36.2l0.1,6.3l0,0.6l0,0.9l0,2.2l0.1,3.9l0,0.2l0,1.6l0,0.5l-0.2-0.1l-0.4-0.3
		l-0.2-0.1c-0.4-0.3-0.7-0.7-1-1.1c-0.4-0.4-0.8-0.8-1.2-1.2c-0.5-0.5-1-1-1.5-1.5c-0.2-0.2-0.4-0.4-0.6-0.6c0,0,0,0,0,0
		c-0.7-0.7-1.3-1.3-2-2c-16.3-17.1-30.6-36.2-42.2-56.8c-6.7-11.8-12.5-24.1-17.5-36.7c-1.1-2.8-2.2-5.6-3.3-8.5
		c0.2-10.3,1.8-20.6,4.9-30.6c2.4-8,5.6-15.9,9.2-23.6c3.7-7.7,7.8-15,12.1-22.7c4.5-8.1,8.9-16.2,13.2-24.4c0.5-1,1.1-2.1,1.6-3.1
		c0.5-1,1.1-2.1,1.6-3.1c2.7-5.2,5.3-10.3,8-15.5l11.5-23.4l9.2-19.4c0-0.1,0-0.1,0.2,0.1l5.6,11.8l5.7,11.6l3.5,7.1l2.3,4.7
		c0.4,0.8,0.8,1.5,1.2,2.3c3.5,7,7.1,14,10.7,21C591.9,637.5,592.5,638.5,593,639.5z M745.3,638.8c5.9-3.4,11.9-6.7,18-9.8l1.6-0.9
		h0l0,0.3c0,1.7,0,3.4,0,5.1c-0.3,27-5.2,54.1-14.9,79.3c-9.6,25.2-24,48.7-42.4,68.5c-9.2,9.9-19.4,19-30.3,27.1
		c-2.3,1.7-4.6,3.4-7,5c-2.7,1.9-5.5,3.7-8.2,5.4c-6.2,3.9-12.6,7.6-19.2,10.9c-6.9,3.5-14.1,6.6-21.3,9.5
		c-4.2,1.7-8.4,3.2-12.7,4.7c2.9-1.4,5.7-2.8,8.5-4.3c8.3-4.5,16.4-9.4,24.1-14.8c0.4-0.3,0.8-0.6,1.2-0.9c2.5-1.8,5.1-3.7,7.5-5.6
		c2.2-1.7,4.3-3.5,6.4-5.2c17.1-14.3,32.1-31,44.4-49.4c0.3-0.4,0.1-1-0.4-1.4c-0.5-0.4-1.2-0.3-1.5,0.1
		c-8.3,11.4-17.6,22.1-27.6,32.1c-7.8,7.7-16.2,14.9-24.9,21.5c-2.7,2-5.3,4-8.1,5.9c-3.2,2.2-6.4,4.4-9.7,6.5
		c-7.7,4.8-15.6,9.3-23.7,13.3c-4.7,2.3-9.5,4.5-14.4,6.5c-2.5,1-5,2.1-7.5,3.1c-0.4,0.2-0.9,0.3-1.3,0.5c-2.6,0.6-5.2,1.2-7.8,1.7
		c0,0,0,0-0.1,0c-1,0.2-1.9,0.3-2.9,0.5c-0.5,0.1-1.1,0.2-1.6,0.3c0.8-0.8,1.6-1.5,2.4-2.3c0.5-0.5,1-1,1.5-1.4
		c0.4-0.4,0.7-0.7,1.1-1.1c1-1,1.9-2,2.8-2.9c0.9-0.9,1.7-1.8,2.6-2.7c0.8-0.9,1.6-1.7,2.4-2.6c1.7-1.8,3.3-3.6,4.9-5.5
		c5.1-5.8,9.9-11.8,14.5-18c6-8.1,11.6-16.6,16.8-25.3c5.3-9,10.2-18.4,14.5-27.9c1.4-3,2.7-6,3.9-9.1c0-0.1,0.1-0.2,0.1-0.3
		c1.1-2.6,2.1-5.1,3.1-7.7c1.5-3.9,3-7.7,4.6-11.3c2.7-6.1,5.8-12,9.5-17.7c5.7-9,12.3-17.3,19.6-25.2c1.7-1.8,3.3-3.5,5.1-5.3
		c1.5-1.5,3.1-3,4.7-4.5c8.6-8.1,17.7-15.5,27.3-22.5C721.9,652.9,733.5,645.7,745.3,638.8z M454.8,813.5c-2.3-1.6-4.6-3.2-6.8-4.9
		c-11.1-8.2-21.5-17.4-30.9-27.5c-11.1-12.5-21.3-26-29.5-40.7c-8.2-14.7-14.5-30.4-19.1-46.7c-4.6-16.2-7.3-33-8.3-49.9
		c-0.2-4.2-0.3-8.5-0.4-12.7l0-3c0,0,0,0,0,0l0,0l8.3,4.4l11.2,6.3c22,12.8,43.3,27.3,61.7,44.7c1.6,1.5,3.1,3.1,4.7,4.7
		c1.7,1.7,3.5,3.4,5.1,5.2c2.6,2.8,5.2,5.7,7.7,8.7c10.3,12.6,18.7,26.3,24.4,41.5c0.2,0.6,0.5,1.2,0.7,1.8c1.1,2.9,2.3,5.9,3.5,8.8
		c1.9,4.7,4,9.4,6.1,14c3.8,8.2,8,16.2,12.6,24c5.1,8.7,10.8,17.1,16.8,25.2c4.3,5.7,8.8,11.3,13.4,16.8c2,2.3,4.1,4.6,6.2,6.9
		c0.7,0.8,1.4,1.5,2.1,2.3c0.9,1,1.9,1.9,2.8,2.9c0.5,0.5,1,1.1,1.5,1.6c0.7,0.8,1.5,1.5,2.2,2.3c0.1,0.1,0.3,0.3,0.4,0.4
		c0.1,0.1,0.2,0.2,0.3,0.3c0.3,0.3,0.7,0.7,1,1c0.5,0.5,1,1,1.6,1.5c0.2,0.2,0.5,0.5,0.7,0.7c-0.6-0.1-1.2-0.2-1.8-0.3
		c-0.7-0.1-1.3-0.2-2-0.4c-0.3-0.1-0.6-0.1-0.8-0.2c-0.3-0.1-0.5-0.1-0.8-0.1c-1.1-0.2-2.2-0.5-3.3-0.7c-1.5-0.3-2.9-0.6-4.4-1
		c-0.6-0.2-1.1-0.4-1.7-0.7c-1.8-0.7-3.5-1.4-5.2-2.1c-5-2.1-10-4.3-14.8-6.7c-8.2-4-16.1-8.5-23.8-13.3c-3.5-2.2-6.9-4.4-10.3-6.8
		c-0.1-0.1-0.3-0.2-0.4-0.3c-2.5-1.8-5-3.6-7.4-5.4c-20-15.2-37.8-33.4-52.6-53.7c-0.3-0.4-0.9-0.4-1.5-0.1c-0.5,0.4-0.7,1-0.5,1.4
		c7.9,11.9,16.9,23.1,27,33.3c5.6,5.7,11.5,11.2,17.6,16.3c2.1,1.7,4.2,3.4,6.3,5.1c2.6,2,5.2,3.9,7.8,5.8
		c8.1,5.7,16.5,11,25.2,15.7c2.3,1.2,4.7,2.5,7,3.6c-3.7-1.3-7.4-2.7-11-4.1c-7.5-3-14.8-6.2-22-9.8c-6.3-3.2-12.5-6.7-18.5-10.5
		C460.5,817.3,457.6,815.4,454.8,813.5z"/>
</g>
</svg>
