<?xml version="1.0" encoding="utf-8"?>
<!-- Generator: Adobe Illustrator 28.0.0, SVG Export Plug-In . SVG Version: 6.00 Build 0)  -->
<svg version="1.1" id="Layer_1" xmlns="http://www.w3.org/2000/svg" xmlns:xlink="http://www.w3.org/1999/xlink" x="0px" y="0px"
	 viewBox="0 0 1000 1000" style="enable-background:new 0 0 1000 1000;" xml:space="preserve">
<style type="text/css">
	.st0{fill:#FFFFFF;}
	.st1{fill:#FFFFFF;stroke:#000000;stroke-miterlimit:10;}
	.st2{fill:#FFFFFF;stroke:#000000;stroke-linecap:round;stroke-linejoin:round;stroke-miterlimit:10;}
	.st3{fill:none;stroke:#000000;stroke-miterlimit:10;}
	.st4{fill:#FFFFFF;stroke:#000000;stroke-width:2;stroke-miterlimit:10;}
	.st5{fill:none;stroke:#000000;stroke-width:2;stroke-miterlimit:10;}
	.st6{stroke:#000000;stroke-width:2;stroke-miterlimit:10;}
</style>
<g>
	<path d="M379.6,435.6c11.3,0,22.6-1.2,33.8-1.3c10.6,0.5,19,9.7,28.1,14.5c0,0,2.9-3.3,2.9-3.3c-8.8-11.3-18.2-24.3-34.1-24.9
		c-4.3-0.3-9-0.7-13.3-0.8c-9.9-0.5-20.6-0.6-30.6-0.7c-20.2,0.1-40.9,8.9-52.8,25.5c-0.2,0.2-0.5,0.7-0.6,0.9
		c0.6,0.7-1.5-1.6,1.4,1.7c2.9,3.3,0.8,0.9,1.5,1.6l0,0l0.1,0l0.1-0.1l0.3-0.1l0.5-0.2c0,0,1-0.5,1-0.5
		c13.9-6.9,29.1-11.5,44.6-12.1C362.6,435.8,379.6,435.6,379.6,435.6z"/>
	<path d="M441.9,510.4c-14.4,7.7-30.6,7.1-46.2,6.9c-15.9-0.6-30.7-7.5-45.1-13.7c-0.8-0.3-0.9-0.5-1.7-0.3
		c-8.2,1.1-17,0.6-25.5,1.1l-0.5,3.2c7.8,2.9,19,3.9,25.9,1.4c6.5,5,13.1,9.9,20.6,13.3c25.8,12.9,51.6,7.1,74.8-8.1
		C444.1,514.2,441.9,510.4,441.9,510.4z"/>
	<path d="M584.9,434.3c11.3,0.2,22.6,1.3,33.8,1.3c0,0,17,0.2,17,0.2c15.5,0.6,30.7,5.2,44.6,12.1c0.5,0.3,1.4,0.7,2,0.9
		c0.7-0.7-1.4,1.6,1.5-1.6c2.9-3.3,0.8-0.9,1.4-1.7l0,0l0-0.1l-0.1-0.1c0,0-0.2-0.2-0.2-0.2c-12.7-18.3-35.7-27-57.5-26
		c0,0-8.7,0.1-8.7,0.1c-12,0.5-24.2,0.2-36.1,2.2c-13.5,2.9-20.8,14.3-28.8,24.1c0,0,2.9,3.3,2.9,3.3
		C565.9,444,574.3,434.8,584.9,434.3z"/>
	<path d="M649.6,509c6.9,2.5,18.1,1.5,25.9-1.4c0,0-0.5-3.2-0.5-3.2c-8.7-0.6-17.7,0-26.2-1.2c-14.9,6.2-29.9,13.6-46.2,14.1
		c-15.7,0.3-31.8,0.8-46.2-6.9c0,0-2.1,3.8-2.1,3.8c23.3,15.3,48.9,21,74.8,8.1C636.6,518.8,643.1,513.9,649.6,509z"/>
	<path d="M486.9,619.8c0,0,1-4.3,1-4.3c-6.8-4.5-15.5-4.3-22.2,0c0,0,1,4.3,1,4.3C473.8,619.5,479.7,619.7,486.9,619.8z"/>
	<path d="M531.7,619.8c0,0,1-4.3,1-4.3c-6.8-4.3-15.5-4.5-22.2,0c0,0,1,4.3,1,4.3C518.6,619.7,524.5,619.5,531.7,619.8z"/>
	<path d="M538.1,713.3C538.1,713.3,538.1,713.3,538.1,713.3C538,713.3,538,713.3,538.1,713.3c-1.3-1.1-2.4-1.8-2.6-1.6
		c-0.6,0.6-1.3,1.1-2,1.6c-10,8-22.2,12.7-34.4,12.6c-12.2,0.2-24.5-4.6-34.4-12.6c-0.7-0.5-1.3-1-2-1.6c-0.2-0.2-1.3,0.5-2.5,1.6
		c0,0,0,0,0,0l0,0c-1.2,1.1-2.1,2.1-1.9,2.3c4.7,6.2,10.7,11.4,17.8,15c8.7,4.6,19.1,6.5,29,5.4c10-1.2,19.6-5.4,27-11.7
		c2.9-2.6,5.6-5.5,7.9-8.7C540.1,715.4,539.3,714.4,538.1,713.3z"/>
	<path d="M502.6,675.2c-2.5,0.7-4.4,1-6.9,0.5c-2.5-0.4-2.3-1.2-5.3-1.1c-16.3,0.4-33.5,7-50.5,7.4c-1.4,0-1.5,1.3-0.6,2
		c3.2,2.3,7.1,4.4,10.8,5.8c0.1,0,0.2,0.1,0.3,0.1c6.2,2.3,12.2,2.7,18.8,2.1c0.1,0,0.1,0,0.2,0c2.6,0,5.1,0,7.7,0.1
		c2.6,0.1,4.5,0.2,7.4,0.6c2.9,0.4,6.6,0.8,9.8,1.2c3.3,0.4,7.4,0.5,10.6-0.1c3.3-0.6,6.7-1.6,9.7-1.9c5.6-0.7,9.2-0.8,15.1-0.5
		c5.9,0.3,12.2,0.7,18.8-0.7c0.7-0.2,1.5-0.4,2.3-0.6c4.7-1.3,9.9-3.6,14.1-5.7c-18.9-1.4-38.9-10.8-57-10.5
		C504.8,673.9,505.1,674.6,502.6,675.2z"/>
	<polygon points="565,687.5 565.1,687.5 565,683.1 	"/>
	<path d="M864.5,411.2C864.5,411.2,864.5,411.2,864.5,411.2c-1.3-1-4.1,0.3-6.3,3.1c-15.4,19.1-31.1,38.1-46.4,57.4l-11.4,14.6
		l-5.6,7.3c-1,1.3-1.8,2.3-2.9,4c-1.2,1.9-1.7,3.9-1.9,5.9c-0.1,1-0.1,2-0.1,2.9c0,0.5,0.1,1,0.1,1.4l0,0.1c0.6-0.1-1.6,0.2,2.5-0.3
		l-1.9,0.3c-0.7,0.1-0.7,0.1-0.6,0.1l0,0l0,0.1l0,0.3c0,1.2-0.2,2.8-0.3,4.3l-0.9,9.1l-2.1,18.3l-9.1,73.2l-4.7,36.6l-2.3,18.3
		c-0.4,3.2-0.7,5.9-1.4,8.6c-0.7,2.7-1.6,5.3-2.8,7.8c-1.9,4.2-4.6,7.3-7.8,11.6l-9.2,12.1l-18.4,24.3c-3,4.2-5.6,8.2-8.8,11.8
		c-3.1,3.6-6.5,7.1-10.1,10.2c-3.6,3.1-7.5,5.9-11.7,8.3c-1.5,0.9-3.1,1.7-4.7,2.6c19.9-18.7,38-39.4,53.9-61.3
		c0.3-0.3-0.5-1.4-1.8-2.4c0,0,0,0,0,0c-1.3-1-2.5-1.6-2.8-1.3c-8.3,8.4-16.3,17-24.3,25.6c-18.1,18.7-37,37-56.3,54.7
		c-0.6,0.4-1.3,0.7-1.9,1.1c-0.6,0.5-1.3,0.9-1.8,1.4l-1.5,1.3c-7.6,6.6-15.3,13.2-23.4,18.1c-2,1.2-4.1,2.2-5.8,2.8
		c-0.8,0.3-1.7,0.4-1.9,0.4c0,0,0,0,0,0l-0.4-0.3c-1.2-1-2.1-2.5-2.8-4.2c-0.6-1.7-1-3.7-1-5.8c-0.1-2.1,0.1-4.4,0.5-6.6
		c0.5-2.8,0.6-6.3,0.1-9.4c-0.2-1-0.4-2-0.7-3c17.6-13.4,38.4-30.2,54.6-45.2c4.1-3.8,8.2-7.7,12.2-11.7c4-4,8-8.6,11.3-13.2
		c6.7-9.3,12.4-19,17.4-29.2c0.2-0.4-0.8-1.3-2.2-2c0,0,0,0,0,0v0c-1.4-0.8-2.7-1.2-3-0.8c-3.4,5.2-7.1,10.3-10.8,15.3
		c-2.8,3.8-5.7,7.5-8.6,11.1c-4.3,5.2-8.9,9.7-14,14.4c-3.9,3.6-7.9,7.2-11.8,10.9c-1.2,1.1-2.3,2.1-3.5,3.2
		c-10.3,9.4-20.4,19-30.3,28.6l-13.7,12.7c-0.2-0.3-0.5-0.6-0.7-1c-0.6-1-1.2-1.9-2-2.8c-1.2-1.3-1.7-2-2-2.4l0,0c0,0,0-0.5,0.1-0.9
		c0.1-0.9,0.5-2.2,0.9-3.4l1.5-4.2c0.5-1.1,0.8-2.2,1.6-3.5c0,0,0,0,0,0c0.9-1.6,1.8-3.2,2.9-4.8c0.6-1,1.2-1.9,1.9-2.9
		c1.5-2.3,3.1-4.5,4.8-6.7c7.1-9.4,15-18.6,22.9-27.6l12.1-13.5c4.2-4.7,8-9.4,11.8-14.5c3.7-5,7.2-10.4,10.1-16.1
		c2.9-5.7,5.1-11.8,6.9-17.7c1.8-6,3.3-11.8,4.9-17.7l1.2-4.5c0.1-0.2,0.1-0.5,0.1-0.7c0.4-1.9,0.2-4.1-0.6-6
		c-0.2-0.6-0.5-1.2-0.9-1.7c-0.2-0.2-0.3-0.4-0.5-0.6c-0.4-0.5-0.9-1-1.3-1.5c-1.4-1.2-3-2.1-4.6-2.6c-1.3-0.4-2.6-0.5-4-0.5
		c-1.5,0.1-3,0.5-4.3,1.2c-1.3,0.7-2.6,2-2.9,2.4l-1.6,1.7l-3.1,3.5c-2.1,2.3-4.2,4.6-6.2,7c-3.9,4.9-7.5,9.9-11,14.7
		c-3.5,4.8-7.1,9.4-11.1,13.5c-2,2.1-4.1,4-6.2,5.8c-2,1.6-4.3,3.1-6.5,4.2c-2.3,1.1-4.6,1.7-6.4,1.7c-1.8-0.1-3-0.6-4.1-2.1
		c-1.1-1.4-2-3.7-2-5.2c0-1.6,0.6-2.9,2.1-4.4l0.3-0.4l0.2-0.2l-0.6,0.6c7.1-5.9,12.9-13.5,16.8-21.7c1-2.1,1.9-4.1,2.7-6.2l2.1-6.2
		c1.4-4.1,2.8-8.3,3.9-12.6c2.2-8.6,3.5-17.2,5-25.3c1.6-8.2,3.6-16.2,6.5-23.8c6-15.3,14.4-30,23.3-44.1c4.4-6.6,8.9-13.4,13.5-20
		c1.1-1.5,2.1-3,3.2-4.6c1-1.4,2-2.9,3-4.3c0.6-0.8,1.2-1.7,1.7-2.5c1.1-1.6,2.3-3.1,3.4-4.6c1.1-1.4,2.1-2.9,3.2-4.3c0,0,0,0,0-0.1
		c0.3-0.3,0.5-0.7,0.8-1c0.1-0.1,0.2-0.3,0.3-0.4c1-1.2,1.9-2.4,2.9-3.7c0.4-0.4,0.7-0.9,1.1-1.3c0.1-0.1,0.1-0.2,0.2-0.3
		c0.4-0.5,0.8-1,1.2-1.4c0.1-0.1,0.2-0.2,0.2-0.3c0.8-0.9,1.6-1.9,2.5-3c0.3-0.4,0.5-0.7,0.8-1.1c0.8-1.1,1.7-2.2,2.4-3.4l9.5-15.9
		l18.9-31.7l16.7-27.8l7.5-12.5l6.7-11.2l7.1-11.8c1.7-2.9,2.1-5.9,0.9-6.9c0,0,0,0,0-0.1c0,0,0,0,0,0c0,0,0,0-0.1,0
		c-1.4-0.8-3.9,0.9-5.8,3.8c-0.3,0.4-0.5,0.8-0.8,1.2c0.7-10,0.9-19.9,0.6-29.9c-0.4-18.1-2.7-36.2-6.3-53.9
		c-1.9-8.9-4.1-17.6-6.7-26.3c-1.3-4.3-2.7-8.6-4.2-12.9c-0.7-2.1-1.5-4.3-2.3-6.4l-2-5.1l-1.6-5.6l-1.5-4.9
		c-3-9.8-6.6-19.4-10.7-28.7c-16.3-37.5-41.7-71.5-74.7-96.3c-32.7-25.2-72.7-40.2-113.3-45.3c-40.8-5.1-82.2-1.3-121.7,9.1
		c-39.6,10.6-76.7,30.2-108,56.5c-31.3,26.3-56.9,58.8-76.6,94.3c-9.9,17.7-18.3,36.2-25.2,55.3c-6.8,19-12.4,38.6-15.7,58.6
		c-2.3,14-3.7,28.2-2.8,42.7l-3.6-5.9c-1.8-2.9-4.4-4.7-5.8-3.9c0,0,0,0.1-0.1,0.1c-1.3,0.9-1,3.9,0.8,6.9
		c3.7,6.2,7.4,12.3,11.1,18.5c2.7,4.5,5.4,9,8.1,13.5c2.1,3.4,4.1,6.9,6.2,10.3c0.5,0.9,1,1.7,1.6,2.6c0.4,0.6,0.7,1.2,1.1,1.8
		c0.5,0.8,1,1.7,1.5,2.5c0.3,0.5,0.7,1.1,1,1.6c5,8.4,10.1,16.8,15.1,25.3l22.9,38.1c0.4,0.6,0.8,1.3,1.3,1.9c0.7,1,1.4,2,2.2,3
		l2.2,2.6l0.5,0.6l0.4,0.5l0.6,0.7c0.3,0.3,0.5,0.7,0.8,1c0,0,0.1,0.1,0.1,0.1c0.7,0.8,1.3,1.7,1.9,2.5c0.7,0.9,1.4,1.8,2.1,2.6
		c0.2,0.3,0.5,0.6,0.7,0.9c0.4,0.5,0.8,1,1.2,1.5c0.8,1,1.5,2,2.2,3c1.1,1.5,2.2,3,3.3,4.5c0.3,0.4,0.6,0.8,0.9,1.3
		c1,1.4,2,2.8,2.9,4.2c1.1,1.6,2.2,3.1,3.3,4.7c0.1,0.1,0.1,0.1,0.2,0.2c8.4,12.2,16.7,24.3,23.8,37.1c7.1,12.7,13.6,25.9,17.2,39.7
		c3.8,13.8,4.8,28.9,9.5,43.7l3.6,10.8c1.2,3.6,2.9,7.3,4.8,10.8c3.8,7,9,13.4,15.2,18.6l-0.6-0.6l0.2,0.2l0.3,0.4
		c1.5,1.4,2.1,2.8,2.1,4.4c0,1.5-0.8,3.9-2,5.3c-1.2,1.4-2.4,1.9-4.1,2.1c-1.8,0-4.2-0.6-6.4-1.7c-2.3-1.1-4.6-2.6-6.5-4.2
		c-2.1-1.8-4.3-3.8-6.2-5.8c-4-4.1-7.5-8.7-11.1-13.5c-3.5-4.8-7.1-9.8-11-14.7c-1.9-2.5-4.1-4.7-6.2-7l-3.1-3.5l-1.6-1.7
		c-0.3-0.4-1.5-1.6-2.8-2.4c-1.3-0.8-2.8-1.1-4.3-1.3c-1.5-0.1-2.7,0.1-4,0.4c-1.9,0.6-3.8,1.5-5.3,3.1c-0.2,0.2-0.4,0.5-0.6,0.7
		c-0.2,0.3-0.4,0.5-0.6,0.8c-0.4,0.6-0.7,1.2-1,1.9c-0.8,2.1-1,4.6-0.4,6.5l1.2,4.5c0.1,0.3,0.2,0.6,0.3,0.9
		c1.5,5.5,2.9,11.1,4.6,16.7c1.8,5.9,4,12,6.9,17.7c2.9,5.7,6.4,11.1,10.1,16.1c3.7,5.1,7.6,9.7,11.8,14.5l12.1,13.5
		c0.6,0.6,1.1,1.3,1.7,2c2.4,2.8,4.8,5.5,7.2,8.3c4.9,5.7,9.6,11.4,14,17.3c1.4,1.9,2.8,3.8,4.2,5.7c1.5,2.1,2.9,4.3,4.1,6.4
		c0.3,0.4,0.5,0.9,0.8,1.3c0.2,0.3,0.4,0.6,0.5,0.9c0.7,1.2,1.1,2.3,1.6,3.5l1.5,4.2c0.4,1.3,0.8,2.5,0.9,3.4
		c0.1,0.4,0.1,0.9,0.1,0.9l0,0c-0.3,0.5-2.9,2.9-4.6,5.5c-0.2,0.4-0.5,0.7-0.7,1.1c-1.8-1.6-3.7-3.3-4.1-3.7
		c-13.9-14.1-28.2-27.8-42.8-41.1c-0.9-0.8-1.8-1.7-2.7-2.5l-12.2-11.2c-4.1-3.7-7.6-7.4-11.1-11.6c-3.3-3.9-6.4-8-9.5-12.1
		c-3.4-4.7-6.7-9.5-9.9-14.3c-0.2-0.3-1.5,0-2.9,0.8c0,0,0,0,0,0c0,0,0,0,0,0c-1.4,0.8-2.4,1.7-2.3,2.1c5,10.2,10.5,20,17.4,29.2
		c4.1,5.8,9.3,11.2,14.3,16c5,4.9,10.2,9.7,15.4,14.4c10.4,9.4,21,18.5,31.8,27.2l16.2,12.9c-0.4,1.4-0.6,2.8-0.7,4.2
		c-0.2,1.8-0.1,3.5,0.1,5.3c0.3,2,0.5,2.8,0.6,4.1c0.3,2.4,0.3,4.9,0.1,7.1c-0.3,1.9-0.8,3.5-1.5,4.9c-0.1,0.3-0.2,0.6-0.4,0.8
		c-0.5,0.8-1.1,1.4-1.8,2c-0.5,0.4-0.2,0.2-0.3,0.3c-0.1,0,0.1,0-0.2,0c-1.1,0-3.5-0.9-5.6-2c-2.2-1.2-4.4-2.6-6.6-4.1
		c-4.4-3-8.7-6.5-12.9-10l-6.3-5.4c-1-0.8-2.4-2.1-3.9-3c-0.5-0.3-0.9-0.5-1.4-0.8c-27.6-25.7-54.4-52.1-80-79.9
		c-0.3-0.3-1.5,0.3-2.7,1.3c0,0,0,0,0,0c-1.3,1-2.1,2.1-1.8,2.5c7.2,9.4,14.4,18.9,22.1,28c9.9,11.5,20.5,22.6,31.6,33.1
		c-0.7-0.3-1.4-0.7-2-1c-9.3-5-17.6-11.9-24.4-20c-1.7-2-3.4-4.1-4.9-6.3c-1.6-2.2-3.1-4.6-4.9-6.8l-10.2-13.5l-20.3-26.7
		c-3-4-5.1-8.6-6.4-13.5c-1.3-4.7-1.6-10.5-2.4-16c-5.7-44.3-11.5-88.7-16.7-132.9c-0.6-5.5-1.2-11.1-1.7-16.5l-0.1-2
		c0-0.6-0.1-1.4-0.1-1.7c-0.1-0.2,0.2-1.3,0.2-2.1c0-0.9,0-1.8-0.1-2.6c-0.2-1.8-0.6-3.5-1.6-5.3c-1-1.7-1.8-2.7-2.7-3.8l-20.9-26.2
		c-13.9-17.4-27.9-34.9-41.8-52.3c-2.2-2.7-4.9-4.1-6.2-3.2c0,0,0,0,0,0c-1.3,1-0.6,4,1.6,6.8l45.3,58.3l11.3,14.6l5.7,7.3
		c0.5,0.6,0.9,1.2,1.1,1.6c0.3,0.5,0.4,0.7,0.6,1.3c0.3,1,0.4,2.1,0.3,3.2l-0.1,0.9c-0.1,0.3-0.1,1.1-0.1,1.6c0,1.1,0.1,1.7,0.1,2.6
		l0.3,4.7l0.8,9.3l1.9,18.4l8.4,73.5l4.4,36.7l2.2,18.3c0.7,6.5,2.6,13.2,5.9,19.2c1.3,2.4,2.9,4.7,4.6,6.9l4.5,5.9l8.9,11.9
		c5.9,7.9,12,15.8,17.8,23.8c5.5,8.4,12.5,16.8,20.7,23.4c4.1,3.4,8.4,6.4,13,9c4.7,2.7,9.2,4.7,13.7,6.9l13.5,6.6l6.6,3.2
		c0.8,0.4,1.6,1,2.4,1.6l2.7,2.3c7.7,6.6,15.3,13.4,24.7,18.9c2.4,1.4,4.9,2.7,8.1,3.6c1.7,0.4,3.4,0.8,6,0.4c0.2,0,0.4-0.1,0.6-0.2
		c0,3.3,0,6.6,0.1,9.9c0.3,14.3-0.8,28.2-3.3,42.1c-2.9,15.8-7.5,31.3-14.1,45.9c-3.3,7.4-6.9,14.5-11.1,21.4
		c-4.1,6.9-8.8,13.6-13.3,20.5c-1.3,1.9-1.3,4.2,0,5.1c0,0,0.1,0,0.1,0c0,0,0,0,0.1,0c0.7,0.4,1.6,0.4,2.5,0c0.8-0.4,1.6-1,2.2-1.8
		c6.4-9.2,13.2-18.5,18.8-28.5c5.7-10,10.5-20.4,14.4-31.2c7.8-21.6,12-44.6,12.4-67.7c0-7.9,0.1-15.9,0.1-23.8
		c2.1-4,2.9-8.4,2.9-12.3c0-2.9-0.2-5.8-0.7-8.5c-0.4-2.2-0.4-3.8-0.1-5.8c0.3-1.8,1-3.6,2-5.2c0.5-0.8,1.1-1.5,1.7-2.2l0.5-0.5
		l0.9-1l1.8-2.1c0.8-1.3,1.3-2.7,1.5-4.2c0.1-1.1,0.1-1.9,0-2.7c2.1,1.6,4.1,3.3,6.2,4.8c14.5,10.9,29.9,20.6,46,29.1
		c8,4.2,16.2,8.1,24.6,11.7l6.3,2.6c2.3,0.9,4.6,1.7,6.9,2.3c4.7,1.3,9.5,2.1,14.4,2.2c9.6,0.4,19.6-1.7,28.2-5.6
		c8.4-3.5,16.6-7.3,24.7-11.5c16.1-8.3,31.6-17.8,46.2-28.6c3.5-2.6,7-5.2,10.4-8c-0.1,1-0.2,2.1,0,3.6c0.2,1.5,0.7,2.9,1.5,4.2
		l1.9,2.4c0.5,0.7,0.8,0.9,1.2,1.3c0.7,0.8,1.3,1.7,1.8,2.7c1,1.9,1.7,4,1.9,6.1c0.3,2.2-0.1,3.7-0.6,7.3c-0.4,3.1-0.4,6.4,0,9.7
		c0.4,2.4,1,5,2.2,7.4c0.1,8.2,0.1,16.4,0.2,24.6c0.4,23.1,4.6,46,12.4,67.6c3.9,10.8,8.7,21.3,14.4,31.2
		c5.6,10.1,12.3,19.3,18.7,28.5c0.6,0.9,1.4,1.5,2.2,1.8c0.9,0.4,1.9,0.5,2.6,0c0,0,0,0,0,0c0,0,0,0,0,0c1.4-0.9,1.4-3.2,0.1-5.2
		c-4.5-6.8-9.2-13.6-13.3-20.4c-4.2-6.9-7.8-14.1-11.1-21.4c-6.6-14.7-11.3-30.2-14.2-45.9c-1.4-7.9-2.4-15.9-2.9-23.9
		c-0.6-8-0.4-16-0.3-24.3l0-4.1c0.1,0,0.2,0.1,0.2,0.1c1.3,0.4,2.8,0.5,3.9,0.4c4.4-0.4,7.2-2,10-3.4c2.8-1.5,5.2-3.1,7.6-4.8
		c4.8-3.4,9.2-7,13.6-10.7l6.4-5.5c1.1-0.9,1.7-1.4,2.7-2.1c0.5-0.3,0.9-0.5,1.4-0.8l1.9-0.9l15.2-7.4c5.1-2.5,10-4.7,15.3-7.6
		c10.4-5.8,19.5-13.6,27-22.7c1.9-2.3,3.6-4.6,5.3-7c1.6-2.3,3.1-4.6,4.9-6.8l10-13.4l20.3-27c3.6-5.1,6.1-10.9,7.4-16.9
		c1.4-6.2,1.6-11.5,2.4-17.1c5.3-44.6,10.7-89.1,15.4-133.7c0.6-5.6,1.1-11.1,1.5-16.9l0.1-2.3l-0.1-1.5l-0.1-0.9
		c-0.1-1,0-2.1,0.2-3c0.3-1,0.5-1.5,1.2-2.5l2.4-3.3c6.6-8.9,13.4-17.8,20.3-26.6c13.8-17.6,27.7-35.1,41.5-52.7
		C865,415.2,865.8,412.2,864.5,411.2z M353,801.8C353,801.8,353,801.8,353,801.8L353,801.8C353,801.8,353,801.8,353,801.8z
		 M759.2,225.3c1.1,3.2,2.2,6.4,3.2,9.6c2,6.5,3.9,13,5.5,19.6c3.2,13.2,5.6,26.5,7,40c2.5,24.5,2.1,49.2-1.3,73.6
		c-11,17.7-21.9,35.4-32.9,53.1l-11.5,18.7l-5.8,9.3c-0.2,0.4-0.5,0.7-0.7,1.1c-0.1,0.1-0.2,0.3-0.3,0.4c-0.1-1.1-0.2-2.3-0.3-3.4
		c0.8-13.8,0.5-30.7-2.7-49.3c-1-5.7-2.3-11.5-3.9-17.4c-3.5-12.9-8.4-26.3-15.4-39.8c-34.6-66.3-96.8-92.7-130.7-102.5
		c-3.1-1.3-6.2-2.6-9.4-3.8c0.8-0.2,1.7-0.4,2.5-0.6c10.3-2.5,20.6-4.7,31-6.7c3.2-0.6,6.4-1.2,9.6-1.7c2.9-0.5,5.9-1,8.8-1.4
		c22.5-3.5,45.3-5.7,68.2-6.7c19.8-0.9,39.8-0.9,59.6,0.1l7.4,0.4l9.5,0.7L759.2,225.3z M731.4,146.5
		C731.4,146.5,731.4,146.5,731.4,146.5L731.4,146.5C731.4,146.5,731.4,146.5,731.4,146.5z M284,436.9c-1.5,7.4-2.6,14.2-3.4,20.2
		c-0.4-0.6-0.9-1.3-1.3-2c-0.4-0.7-0.9-1.4-1.3-2.1l-3.8-6.2l-5.9-9.5l-19.5-31.4l-10.9-17.5l-0.2-0.3c7.2-23.8,18.3-46.5,30.5-68.5
		c3.7-6.7,7.6-13.3,11.5-19.8c1.9-3.2,3.9-6.3,5.9-9.5c2.1-3.4,4.2-6.7,6.3-10.1c4.1-6.3,8.3-12.6,12.5-18.8c0,0,0,0,0,0
		c1.7-2.6,3.6-5.1,5.3-7.6c1.6-2.3,3.3-4.7,4.9-7c0.5-0.7,1-1.4,1.5-2.1c0.3-0.4-0.4-1.6-1.6-2.6c0,0,0,0,0,0
		c-1.2-1-2.6-1.6-2.9-1.1c-3.3,3.7-6.4,7.4-9.5,11.2c-2.2,2.7-4.4,5.4-6.5,8.1c-2.3,2.9-4.6,5.9-6.8,8.9c-1.8,2.4-3.5,4.8-5.3,7.2
		c-0.3,0.4-0.5,0.8-0.8,1.2c-10.5,14.9-20.4,30.6-28.9,47c-8.8,16.8-16.3,34.5-21.2,52.9c-0.1,0.6-0.3,1.1-0.4,1.7L224,366l-0.7-2.2
		c-2-7-2.5-14.8-2.4-22.5c0.1-15.5,2.6-31,5.9-46.3c6.9-30.6,18.2-60.2,32.7-88.1c14.5-27.9,32.7-53.8,54.2-76.7
		c21.6-22.7,46.5-42.3,74.2-56.8c13.7-7.5,28.4-13.1,43.1-18.2c14.9-4.7,30.3-8.2,45.7-10.6c31-4.9,62.7-5.6,93.5-0.6
		c30.8,5,60.7,15.7,86.8,32.6c23.5,15.1,43.8,34.9,60.1,57.7c-10.5-5-21.9-8.1-33.3-10.1c-17.2-2.7-34.5-2.9-51.6-1.7
		c-34.3,2.6-67.8,10.1-99.9,20.8c-0.6,0.2-0.7,1.6-0.2,3.1c0,0,0,0,0,0c0,0,0,0,0,0c0.5,1.6,1.3,2.7,1.9,2.5
		c3.6-0.9,7.1-1.7,10.7-2.5c12.8-2.9,25.7-5.4,38.5-7.6c20.5-3.4,41.3-5.9,62.1-6.6c20.7-0.6,41.7,0.5,61.1,6.3
		c6.5,1.8,12.7,4.3,18.6,7.6c0.2,0.1,0.4,0.2,0.5,0.3h-0.3c7.4,11.8,13.8,24.3,19.2,37.1c2.4,5.9,4.6,12,6.6,18.1
		c0.4,1.3,0.9,2.6,1.3,4l0.8,2.6c0,0,0.1,0.2,0,0.1l-1.1-0.1l-5.3-0.3c-1.2-0.1-2.5-0.1-3.7-0.1c-30.8-1.6-61.7-0.9-92.4,1.9
		c-16,1.5-31.9,3.6-47.7,6.2c-4.9,0.9-9.8,1.9-14.7,2.9c-3.1,0.6-6.3,1.2-9.4,1.8c-3.3,0.7-6.5,1.5-9.7,2.3c-4.4,1-8.8,2-13.2,3.1
		c-3.7,1-7.3,2-10.9,3c-1.8,0.5-3.7,1.1-5.5,1.6c-1.9,0.6-3.9,1.1-5.8,1.7c-1,0.3-1.9,0.6-2.9,0.9c-37.6,1.7-126.4,13.7-191.1,88.8
		C305.7,362,290.7,405,284,436.9z M615.9,739.9c-0.7,1.1-1.4,2.1-2.1,3.2c-14.1,12.5-29.3,23.8-45.4,33.7c-9.4,5.7-19,11-28.9,15.8
		c-4.9,2.4-9.9,4.7-15,6.8c-5.2,2.2-9.8,4.1-14.8,5.1c-10,2-20.5,1.1-30-2.7c-10.1-4.1-20.1-8.8-29.9-13.9
		c-23.3-12.2-45.1-27.3-64.7-44.7c-0.8-1.3-1.6-2.6-2.5-3.9c-1.5-2.3-3.2-4.5-4.8-6.7c-0.2-0.3-0.5-0.6-0.7-1
		c-1.4-1.8-2.8-3.5-4.2-5.3c-6.2-7.9-12.6-15.5-19.2-23l-12.2-13.5c-3.8-4.3-7.7-9-11.2-13.7c-7.1-9.4-12.2-19.4-15.4-30.7
		c-1.7-5.6-3.2-11.5-4.8-17.3l-1.2-4.3c-0.1-0.4,0-0.2,0-0.3c-0.1-0.2,0.9-0.5,1.2-0.5c0-0.1,0-0.1,0,0c0.1,0,0.1,0,0,0
		c0.3,0.3,1.3,1.5,2,2.2l3,3.3c2,2.2,4,4.3,5.8,6.6c3.7,4.5,7.2,9.4,10.8,14.3c3.6,4.9,7.5,9.9,12,14.5c2.2,2.3,4.6,4.4,7.1,6.5
		c2.7,2.2,5.5,4,8.7,5.5c3.2,1.5,6.8,2.7,11,2.6c4.3-0.1,9-2.4,11.5-5.8c2.5-3.4,4-7,4.1-11.5c0.1-4.4-2.2-8.6-5-11.2l-0.1-0.1
		l-0.6-0.6c-6.2-5.1-11.1-11.5-14.6-18.8c-0.9-1.8-1.7-3.7-2.4-5.6l-2-6c-1.4-4-2.7-8-3.7-12.1c-2.1-8.1-3.3-16.6-5.1-25.3
		c-1.8-8.6-4.1-17.4-7.6-25.7c-6.8-16.5-15.8-31.6-25.5-46.1c-9.9-14.3-19.5-28.6-30.6-42.2c-0.7-0.9-1.5-1.9-2.3-2.8
		c10.6-27.7,24.3-54.2,41.2-78.5c1.4-2,2.8-3.9,4.2-5.8c18.1-23.4,41.5-47.5,71.6-68.9c53.4-37.9,105.9-51.7,137.3-57.3
		c24.4,9.9,72.6,33.4,114.2,83.7c33.6,40.5,49.5,82.2,57.3,112c0.1,1.4,0.3,2.8,0.4,4.2c0.2,3.3,0.3,6.6,0.4,9.9
		c-0.8,0.9-1.6,1.8-2.3,2.8c-2.4,2.9-4.7,5.8-6.9,8.7c-4.5,5.9-8.8,11.9-13,17.9c-8.4,11.9-16.9,24.2-24.2,37.1
		c-7.3,12.9-14.1,26.5-17.9,41.3c-4,14.7-5.1,29.3-9.6,42.7l-3.4,10.2c-1.2,3.3-2.7,6.4-4.3,9.4c-3.3,5.9-7.7,11.2-12.9,15.5
		l-0.6,0.6l-0.1,0.1c-2.8,2.6-5,6.8-5,11.2c0.1,4.5,1.6,8.1,4.1,11.5c2.5,3.4,7.3,5.8,11.5,5.8c4.2,0.1,7.8-1.1,11-2.5
		c3.2-1.5,6-3.3,8.7-5.5c2.5-2.1,4.8-4.2,7.1-6.5c4.5-4.6,8.3-9.6,12-14.5c3.6-4.9,7.1-9.7,10.8-14.3c1.8-2.3,3.9-4.4,5.8-6.6l5-5.5
		c-0.4-0.2,1.4,0.2,1.3,0.5c0,0.1,0-0.1,0,0.3l-1.1,4.2c-1.6,5.9-3.1,11.7-4.8,17.3c-3.2,11.3-8.3,21.3-15.4,30.7
		c-3.4,4.7-7.3,9.4-11.1,13.7l-12.2,13.5c-6.9,7.7-13.5,15.7-20,23.9c-1.2,1.5-2.4,2.9-3.5,4.4c-0.4,0.6-0.9,1.2-1.3,1.7
		C618.9,735.4,617.4,737.6,615.9,739.9z M645.9,801.8C645.9,801.8,645.8,801.8,645.9,801.8L645.9,801.8L645.9,801.8z"/>
	<path d="M310.1,623C310.1,623,310.1,623,310.1,623C310,622.9,310,622.9,310.1,623C310,623,310,623,310.1,623
		C310.1,623,310.1,623,310.1,623z"/>
	<path d="M617.7,649.9L617.7,649.9c0.1-0.1,0.2-0.3,0.3-0.4L617.7,649.9z"/>
	<path d="M380.8,649.5c0.1,0.1,0.2,0.2,0.3,0.3l0,0L380.8,649.5z"/>
</g>
</svg>
